<svg xmlns="http://www.w3.org/2000/svg" xmlns:xlink="http://www.w3.org/1999/xlink" width="500" zoomAndPan="magnify" viewBox="0 0 375 374.999991" height="500" preserveAspectRatio="xMidYMid meet" version="1.0"><defs><g/><clipPath id="0706e12645"><path d="M 27 27 L 348 27 L 348 348 L 27 348 Z M 27 27 " clip-rule="nonzero"/></clipPath><clipPath id="10f8dcea05"><path d="M 187.5 27 C 98.859375 27 27 98.859375 27 187.5 C 27 276.140625 98.859375 348 187.5 348 C 276.140625 348 348 276.140625 348 187.5 C 348 98.859375 276.140625 27 187.5 27 Z M 187.5 27 " clip-rule="nonzero"/></clipPath><clipPath id="8d085ffc8b"><path d="M 37.5 37.5 L 337.5 37.5 L 337.5 337.5 L 37.5 337.5 Z M 37.5 37.5 " clip-rule="nonzero"/></clipPath><clipPath id="ebb440c5e4"><path d="M 187.5 37.5 C 104.65625 37.5 37.5 104.65625 37.5 187.5 C 37.5 270.34375 104.65625 337.5 187.5 337.5 C 270.34375 337.5 337.5 270.34375 337.5 187.5 C 337.5 104.65625 270.34375 37.5 187.5 37.5 Z M 187.5 37.5 " clip-rule="nonzero"/></clipPath><clipPath id="c30b2cfd8f"><path d="M 92.4375 92.4375 L 282.5625 92.4375 L 282.5625 282.5625 L 92.4375 282.5625 Z M 92.4375 92.4375 " clip-rule="nonzero"/></clipPath><clipPath id="463162ad8c"><path d="M 187.5 92.4375 C 135 92.4375 92.4375 135 92.4375 187.5 C 92.4375 240 135 282.5625 187.5 282.5625 C 240 282.5625 282.5625 240 282.5625 187.5 C 282.5625 135 240 92.4375 187.5 92.4375 Z M 187.5 92.4375 " clip-rule="nonzero"/></clipPath><clipPath id="f5a1107381"><path d="M 97.648438 97.648438 L 277.648438 97.648438 L 277.648438 277.648438 L 97.648438 277.648438 Z M 97.648438 97.648438 " clip-rule="nonzero"/></clipPath><clipPath id="cab64e879d"><path d="M 100.636719 100.636719 L 274.636719 100.636719 L 274.636719 274.636719 L 100.636719 274.636719 Z M 100.636719 100.636719 " clip-rule="nonzero"/></clipPath><clipPath id="db2d18871f"><path d="M 155 112 L 218 112 L 218 183 L 155 183 Z M 155 112 " clip-rule="nonzero"/></clipPath><clipPath id="fa559f4beb"><path d="M 162.558594 105.378906 L 222.871094 117.414062 L 209.953125 182.140625 L 149.644531 170.101562 Z M 162.558594 105.378906 " clip-rule="nonzero"/></clipPath><clipPath id="b6a2baeaca"><path d="M 162.558594 105.378906 L 222.871094 117.414062 L 209.953125 182.140625 L 149.644531 170.101562 Z M 162.558594 105.378906 " clip-rule="nonzero"/></clipPath></defs><g clip-path="url(#0706e12645)"><g clip-path="url(#10f8dcea05)"><path fill="#000000" d="M 27 27 L 348 27 L 348 348 L 27 348 Z M 27 27 " fill-opacity="1" fill-rule="nonzero"/></g></g><g clip-path="url(#8d085ffc8b)"><g clip-path="url(#ebb440c5e4)"><path fill="#000000" d="M 37.5 37.5 L 337.5 37.5 L 337.5 337.5 L 37.5 337.5 Z M 37.5 37.5 " fill-opacity="1" fill-rule="nonzero"/><path stroke-linecap="butt" transform="matrix(0.75, 0, 0, 0.75, 37.500002, 37.499998)" fill="none" stroke-linejoin="miter" d="M 200.00001 0.00000328333 C 89.54167 0.00000328333 -0.00000271667 89.541676 -0.00000271667 200.000016 C -0.00000271667 310.458357 89.54167 400.00003 200.00001 400.00003 C 310.458351 400.00003 400.000024 310.458357 400.000024 200.000016 C 400.000024 89.541676 310.458351 0.00000328333 200.00001 0.00000328333 Z M 200.00001 0.00000328333 " stroke="#f0f4e5" stroke-width="14" stroke-opacity="1" stroke-miterlimit="4"/></g></g><g clip-path="url(#c30b2cfd8f)"><g clip-path="url(#463162ad8c)"><path fill="#ffffff" d="M 92.4375 92.4375 L 282.5625 92.4375 L 282.5625 282.5625 L 92.4375 282.5625 Z M 92.4375 92.4375 " fill-opacity="1" fill-rule="nonzero"/></g></g><g clip-path="url(#f5a1107381)"><path fill="#aad9f4" d="M 277.34375 187.496094 C 277.34375 188.96875 277.308594 190.4375 277.238281 191.90625 C 277.164062 193.375 277.058594 194.839844 276.914062 196.304688 C 276.769531 197.769531 276.589844 199.226562 276.371094 200.679688 C 276.15625 202.136719 275.90625 203.582031 275.617188 205.027344 C 275.332031 206.46875 275.011719 207.902344 274.652344 209.328125 C 274.296875 210.753906 273.902344 212.171875 273.476562 213.578125 C 273.050781 214.984375 272.589844 216.382812 272.09375 217.765625 C 271.597656 219.152344 271.070312 220.523438 270.507812 221.878906 C 269.941406 223.238281 269.347656 224.582031 268.71875 225.914062 C 268.089844 227.242188 267.429688 228.554688 266.734375 229.851562 C 266.042969 231.148438 265.320312 232.425781 264.5625 233.6875 C 263.804688 234.949219 263.019531 236.191406 262.203125 237.414062 C 261.386719 238.636719 260.539062 239.839844 259.664062 241.019531 C 258.789062 242.199219 257.882812 243.359375 256.949219 244.496094 C 256.019531 245.632812 255.058594 246.746094 254.070312 247.835938 C 253.082031 248.925781 252.070312 249.988281 251.03125 251.03125 C 249.988281 252.070312 248.925781 253.082031 247.835938 254.070312 C 246.746094 255.058594 245.632812 256.019531 244.496094 256.949219 C 243.359375 257.882812 242.199219 258.789062 241.019531 259.664062 C 239.839844 260.539062 238.636719 261.386719 237.414062 262.203125 C 236.191406 263.019531 234.949219 263.804688 233.6875 264.5625 C 232.425781 265.320312 231.148438 266.042969 229.851562 266.734375 C 228.554688 267.429688 227.242188 268.089844 225.914062 268.71875 C 224.582031 269.347656 223.238281 269.941406 221.878906 270.507812 C 220.523438 271.070312 219.152344 271.597656 217.765625 272.09375 C 216.382812 272.589844 214.984375 273.050781 213.578125 273.476562 C 212.171875 273.902344 210.753906 274.296875 209.328125 274.652344 C 207.902344 275.011719 206.46875 275.332031 205.027344 275.617188 C 203.582031 275.90625 202.136719 276.15625 200.679688 276.371094 C 199.226562 276.589844 197.769531 276.769531 196.304688 276.914062 C 194.839844 277.058594 193.375 277.164062 191.90625 277.238281 C 190.4375 277.308594 188.96875 277.34375 187.496094 277.34375 C 186.027344 277.34375 184.558594 277.308594 183.089844 277.238281 C 181.621094 277.164062 180.15625 277.058594 178.691406 276.914062 C 177.226562 276.769531 175.769531 276.589844 174.3125 276.371094 C 172.859375 276.15625 171.410156 275.90625 169.96875 275.617188 C 168.527344 275.332031 167.09375 275.011719 165.667969 274.652344 C 164.238281 274.296875 162.824219 273.902344 161.417969 273.476562 C 160.007812 273.050781 158.613281 272.589844 157.230469 272.09375 C 155.84375 271.597656 154.472656 271.070312 153.113281 270.507812 C 151.757812 269.941406 150.410156 269.347656 149.082031 268.71875 C 147.753906 268.089844 146.441406 267.429688 145.144531 266.734375 C 143.847656 266.042969 142.566406 265.320312 141.308594 264.5625 C 140.046875 263.804688 138.804688 263.019531 137.582031 262.203125 C 136.359375 261.386719 135.15625 260.539062 133.976562 259.664062 C 132.792969 258.789062 131.636719 257.882812 130.5 256.949219 C 129.363281 256.019531 128.25 255.058594 127.160156 254.070312 C 126.070312 253.082031 125.003906 252.070312 123.964844 251.03125 C 122.925781 249.988281 121.914062 248.925781 120.925781 247.835938 C 119.9375 246.746094 118.976562 245.632812 118.042969 244.496094 C 117.113281 243.359375 116.207031 242.199219 115.332031 241.019531 C 114.457031 239.839844 113.609375 238.636719 112.792969 237.414062 C 111.976562 236.191406 111.1875 234.949219 110.433594 233.6875 C 109.675781 232.425781 108.953125 231.148438 108.257812 229.851562 C 107.566406 228.554688 106.90625 227.242188 106.277344 225.914062 C 105.648438 224.582031 105.050781 223.238281 104.488281 221.878906 C 103.925781 220.523438 103.398438 219.152344 102.902344 217.765625 C 102.40625 216.382812 101.945312 214.984375 101.519531 213.578125 C 101.09375 212.171875 100.699219 210.753906 100.34375 209.328125 C 99.984375 207.902344 99.664062 206.46875 99.375 205.027344 C 99.089844 203.582031 98.839844 202.136719 98.621094 200.679688 C 98.40625 199.226562 98.226562 197.769531 98.082031 196.304688 C 97.9375 194.839844 97.832031 193.375 97.757812 191.90625 C 97.6875 190.4375 97.648438 188.96875 97.648438 187.496094 C 97.648438 186.027344 97.6875 184.558594 97.757812 183.089844 C 97.832031 181.621094 97.9375 180.15625 98.082031 178.691406 C 98.226562 177.226562 98.40625 175.769531 98.621094 174.3125 C 98.839844 172.859375 99.089844 171.410156 99.375 169.96875 C 99.664062 168.527344 99.984375 167.09375 100.34375 165.667969 C 100.699219 164.238281 101.09375 162.824219 101.519531 161.417969 C 101.945312 160.007812 102.40625 158.613281 102.902344 157.230469 C 103.398438 155.84375 103.925781 154.472656 104.488281 153.113281 C 105.050781 151.757812 105.648438 150.410156 106.277344 149.082031 C 106.90625 147.753906 107.566406 146.441406 108.257812 145.144531 C 108.953125 143.847656 109.675781 142.566406 110.433594 141.308594 C 111.1875 140.046875 111.976562 138.804688 112.792969 137.582031 C 113.609375 136.359375 114.457031 135.15625 115.332031 133.976562 C 116.207031 132.792969 117.113281 131.636719 118.042969 130.5 C 118.976562 129.363281 119.9375 128.25 120.925781 127.160156 C 121.914062 126.070312 122.925781 125.003906 123.964844 123.964844 C 125.003906 122.925781 126.070312 121.914062 127.160156 120.925781 C 128.25 119.9375 129.363281 118.976562 130.5 118.042969 C 131.636719 117.113281 132.792969 116.207031 133.976562 115.332031 C 135.15625 114.457031 136.359375 113.609375 137.582031 112.792969 C 138.804688 111.976562 140.046875 111.1875 141.308594 110.433594 C 142.566406 109.675781 143.847656 108.953125 145.144531 108.257812 C 146.441406 107.566406 147.753906 106.90625 149.082031 106.277344 C 150.410156 105.648438 151.757812 105.050781 153.113281 104.488281 C 154.472656 103.925781 155.84375 103.398438 157.230469 102.902344 C 158.613281 102.40625 160.007812 101.945312 161.417969 101.519531 C 162.824219 101.09375 164.238281 100.699219 165.667969 100.34375 C 167.09375 99.984375 168.527344 99.664062 169.96875 99.375 C 171.410156 99.089844 172.859375 98.839844 174.3125 98.621094 C 175.769531 98.40625 177.226562 98.226562 178.691406 98.082031 C 180.15625 97.9375 181.621094 97.832031 183.089844 97.757812 C 184.558594 97.6875 186.027344 97.648438 187.496094 97.648438 C 188.96875 97.648438 190.4375 97.6875 191.90625 97.757812 C 193.375 97.832031 194.839844 97.9375 196.304688 98.082031 C 197.769531 98.226562 199.226562 98.40625 200.679688 98.621094 C 202.136719 98.839844 203.582031 99.089844 205.027344 99.375 C 206.46875 99.664062 207.902344 99.984375 209.328125 100.34375 C 210.753906 100.699219 212.171875 101.09375 213.578125 101.519531 C 214.984375 101.945312 216.382812 102.40625 217.765625 102.902344 C 219.152344 103.398438 220.523438 103.925781 221.878906 104.488281 C 223.238281 105.050781 224.582031 105.648438 225.914062 106.277344 C 227.242188 106.90625 228.554688 107.566406 229.851562 108.257812 C 231.148438 108.953125 232.425781 109.675781 233.6875 110.433594 C 234.949219 111.1875 236.191406 111.976562 237.414062 112.792969 C 238.636719 113.609375 239.839844 114.457031 241.019531 115.332031 C 242.199219 116.207031 243.359375 117.113281 244.496094 118.042969 C 245.632812 118.976562 246.746094 119.9375 247.835938 120.925781 C 248.925781 121.914062 249.988281 122.925781 251.03125 123.964844 C 252.070312 125.003906 253.082031 126.070312 254.070312 127.160156 C 255.058594 128.25 256.019531 129.363281 256.949219 130.5 C 257.882812 131.636719 258.789062 132.792969 259.664062 133.976562 C 260.539062 135.15625 261.386719 136.359375 262.203125 137.582031 C 263.019531 138.804688 263.804688 140.046875 264.5625 141.308594 C 265.320312 142.566406 266.042969 143.847656 266.734375 145.144531 C 267.429688 146.441406 268.089844 147.753906 268.71875 149.082031 C 269.347656 150.410156 269.941406 151.757812 270.507812 153.113281 C 271.070312 154.472656 271.597656 155.84375 272.09375 157.230469 C 272.589844 158.613281 273.050781 160.007812 273.476562 161.417969 C 273.902344 162.824219 274.296875 164.238281 274.652344 165.667969 C 275.011719 167.09375 275.332031 168.527344 275.617188 169.96875 C 275.90625 171.410156 276.15625 172.859375 276.371094 174.3125 C 276.589844 175.769531 276.769531 177.226562 276.914062 178.691406 C 277.058594 180.15625 277.164062 181.621094 277.238281 183.089844 C 277.308594 184.558594 277.34375 186.027344 277.34375 187.496094 Z M 277.34375 187.496094 " fill-opacity="1" fill-rule="nonzero"/></g><g clip-path="url(#cab64e879d)"><path fill="#022e45" d="M 105.75 187.503906 C 105.75 142.429688 142.417969 105.757812 187.496094 105.757812 C 232.570312 105.757812 269.242188 142.429688 269.242188 187.503906 C 269.242188 205.335938 263.441406 222.183594 253.367188 235.910156 C 253.199219 235.914062 253.03125 235.929688 252.863281 235.964844 C 247.910156 237.023438 242.808594 237.355469 237.710938 236.957031 C 215.171875 235.203125 195.984375 218.902344 190.515625 197.09375 C 195.273438 197.710938 199.902344 199.179688 204.117188 201.429688 C 205.117188 201.964844 206.175781 202.222656 207.214844 202.222656 C 209.164062 202.222656 211.042969 201.316406 212.324219 199.617188 C 214.273438 197.035156 214.0625 193.609375 211.816406 191.28125 C 206.246094 185.515625 199.707031 180.980469 192.382812 177.804688 C 184.796875 174.519531 176.726562 172.851562 168.390625 172.851562 C 157.429688 172.851562 146.691406 175.820312 137.34375 181.4375 C 128.265625 186.890625 120.746094 194.660156 115.597656 203.910156 C 114.441406 205.992188 112.390625 206.464844 110.859375 206.214844 C 109.339844 205.96875 107.5625 204.875 107.128906 202.558594 C 106.214844 197.628906 105.75 192.5625 105.75 187.503906 Z M 170.574219 199.550781 C 167.835938 201.734375 165.390625 204.246094 163.273438 207.050781 C 160.617188 210.578125 158.550781 214.476562 157.132812 218.636719 C 155.664062 222.941406 154.921875 227.453125 154.921875 232.039062 C 154.921875 237.644531 156.019531 243.085938 158.1875 248.207031 C 160.28125 253.15625 163.273438 257.597656 167.089844 261.410156 C 169.925781 264.25 173.113281 266.632812 176.59375 268.53125 C 174.511719 268.25 172.445312 267.894531 170.402344 267.460938 C 155.890625 264.378906 145.613281 251.957031 145.410156 237.265625 C 145.40625 237.074219 145.40625 236.878906 145.40625 236.683594 C 145.410156 225.976562 149.570312 215.929688 157.113281 208.402344 C 161.015625 204.511719 165.585938 201.523438 170.574219 199.550781 Z M 182.09375 210.652344 C 182.316406 216.296875 183.421875 221.847656 185.371094 227.148438 C 187.34375 232.511719 190.136719 237.496094 193.671875 241.957031 C 197.324219 246.570312 201.710938 250.542969 206.707031 253.757812 C 211.300781 256.71875 216.199219 258.929688 221.339844 260.363281 C 218.199219 261.207031 215.011719 261.613281 211.847656 261.613281 C 198.066406 261.617188 184.824219 253.871094 178.492188 240.632812 C 172.503906 228.105469 174.222656 213.214844 182.402344 202.378906 C 182.085938 205.117188 181.980469 207.878906 182.09375 210.652344 Z M 160.03125 232.039062 C 160.03125 219.496094 166.625 207.941406 176.859375 201.347656 C 176.269531 202.230469 175.707031 203.140625 175.183594 204.078125 C 173.019531 207.921875 171.476562 212.066406 170.601562 216.394531 C 169.714844 220.765625 169.53125 225.226562 170.054688 229.644531 C 170.59375 234.210938 171.882812 238.648438 173.886719 242.835938 C 176.332031 247.953125 179.707031 252.4375 183.921875 256.167969 C 187.988281 259.765625 192.660156 262.515625 197.804688 264.332031 C 201.214844 265.53125 204.71875 266.289062 208.273438 266.585938 C 204.710938 267.523438 201.082031 268.210938 197.414062 268.652344 C 197.121094 268.535156 196.800781 268.472656 196.464844 268.472656 C 176.375 268.472656 160.03125 252.128906 160.03125 232.039062 Z M 230.648438 256.957031 C 223.058594 256.152344 215.933594 253.628906 209.46875 249.464844 C 194.191406 239.621094 185.832031 221.894531 187.363281 204.199219 C 188.574219 207.5 190.089844 210.691406 191.894531 213.742188 C 194.996094 218.980469 198.882812 223.6875 203.449219 227.71875 C 208.0625 231.800781 213.265625 235.097656 218.902344 237.523438 C 224.734375 240.03125 230.925781 241.550781 237.3125 242.050781 C 238.832031 242.167969 240.355469 242.230469 241.871094 242.230469 C 244.113281 242.230469 246.351562 242.097656 248.570312 241.839844 C 243.394531 247.667969 237.371094 252.773438 230.648438 256.957031 Z M 100.640625 187.503906 C 100.640625 192.875 101.132812 198.253906 102.109375 203.492188 C 102.863281 207.542969 105.976562 210.59375 110.035156 211.257812 C 114.113281 211.921875 118.046875 210.015625 120.0625 206.394531 C 129.820312 188.855469 148.339844 177.960938 168.390625 177.960938 C 183.515625 177.960938 197.632812 183.949219 208.144531 194.828125 C 208.824219 195.535156 208.5 196.207031 208.246094 196.542969 C 208.035156 196.820312 207.445312 197.417969 206.523438 196.925781 C 200.078125 193.484375 192.785156 191.664062 185.4375 191.648438 C 185.410156 191.648438 185.378906 191.648438 185.347656 191.648438 C 179.277344 191.648438 173.390625 192.828125 167.855469 195.15625 C 162.476562 197.414062 157.648438 200.65625 153.507812 204.785156 C 149.367188 208.917969 146.113281 213.738281 143.84375 219.109375 C 141.492188 224.667969 140.300781 230.582031 140.296875 236.683594 C 140.296875 236.902344 140.300781 237.121094 140.304688 237.339844 C 140.359375 241.519531 141.132812 245.621094 142.597656 249.527344 C 144.023438 253.320312 146.0625 256.835938 148.664062 259.96875 C 151.261719 263.097656 154.335938 265.757812 157.808594 267.875 C 161.367188 270.046875 165.246094 271.585938 169.339844 272.457031 C 175.269531 273.71875 181.378906 274.359375 187.496094 274.359375 C 197.164062 274.359375 206.65625 272.78125 215.71875 269.671875 L 215.726562 269.667969 L 216.070312 269.546875 C 224.46875 266.621094 232.347656 262.429688 239.492188 257.078125 C 246.558594 251.792969 252.765625 245.480469 257.933594 238.332031 C 263.167969 231.089844 267.234375 223.128906 270.015625 214.675781 C 272.890625 205.933594 274.351562 196.792969 274.351562 187.503906 C 274.351562 175.78125 272.054688 164.40625 267.523438 153.695312 C 263.148438 143.351562 256.886719 134.066406 248.910156 126.089844 C 240.933594 118.113281 231.648438 111.851562 221.304688 107.476562 C 210.59375 102.945312 199.21875 100.648438 187.496094 100.648438 C 175.769531 100.648438 164.394531 102.945312 153.6875 107.476562 C 143.34375 111.851562 134.054688 118.113281 126.078125 126.089844 C 118.105469 134.066406 111.84375 143.351562 107.46875 153.695312 C 102.9375 164.40625 100.640625 175.78125 100.640625 187.503906 " fill-opacity="1" fill-rule="nonzero"/></g><path fill="#ffffff" d="M 105.75 187.503906 C 105.75 142.429688 142.417969 105.757812 187.496094 105.757812 C 232.570312 105.757812 269.242188 142.429688 269.242188 187.503906 C 269.242188 205.335938 263.441406 222.183594 253.367188 235.910156 C 253.199219 235.914062 253.03125 235.929688 252.863281 235.964844 C 247.910156 237.023438 242.808594 237.355469 237.710938 236.957031 C 215.171875 235.203125 195.984375 218.902344 190.515625 197.09375 C 195.273438 197.710938 199.902344 199.179688 204.117188 201.429688 C 205.117188 201.964844 206.175781 202.222656 207.214844 202.222656 C 209.164062 202.222656 211.042969 201.316406 212.324219 199.617188 C 214.273438 197.035156 214.0625 193.609375 211.816406 191.28125 C 206.246094 185.515625 199.707031 180.980469 192.382812 177.804688 C 184.796875 174.519531 176.726562 172.851562 168.390625 172.851562 C 157.429688 172.851562 146.691406 175.820312 137.34375 181.4375 C 128.265625 186.890625 120.746094 194.660156 115.597656 203.910156 C 114.441406 205.992188 112.390625 206.464844 110.859375 206.214844 C 109.339844 205.96875 107.5625 204.875 107.128906 202.558594 C 106.214844 197.628906 105.75 192.5625 105.75 187.503906 " fill-opacity="1" fill-rule="nonzero"/><g fill="#f0f4e5" fill-opacity="1"><g transform="translate(108.507803, 114.014403)"><g><path d="M 5.453125 -5.21875 C 5.453125 -5.21875 5.5625 -5.179688 5.78125 -5.109375 C 5.8125 -5.421875 5.800781 -5.71875 5.75 -6 C 5.695312 -6.289062 5.644531 -6.578125 5.59375 -6.859375 C 5.382812 -7.867188 5.09375 -8.851562 4.71875 -9.8125 C 4.351562 -10.769531 3.960938 -11.710938 3.546875 -12.640625 C 3.117188 -13.578125 2.703125 -14.519531 2.296875 -15.46875 C 1.890625 -16.414062 1.46875 -17.347656 1.03125 -18.265625 C 0.863281 -18.648438 0.664062 -19.023438 0.4375 -19.390625 C 0.21875 -19.765625 0.0078125 -20.15625 -0.1875 -20.5625 C -0.363281 -20.9375 -0.441406 -21.191406 -0.421875 -21.328125 C -0.398438 -21.460938 -0.222656 -21.671875 0.109375 -21.953125 C 0.253906 -22.097656 0.414062 -22.226562 0.59375 -22.34375 C 0.769531 -22.46875 0.929688 -22.601562 1.078125 -22.75 C 1.265625 -22.957031 1.457031 -23.050781 1.65625 -23.03125 C 1.851562 -23.019531 2.050781 -22.945312 2.25 -22.8125 C 2.882812 -22.394531 3.488281 -21.941406 4.0625 -21.453125 C 4.632812 -20.960938 5.207031 -20.460938 5.78125 -19.953125 C 6.625 -19.234375 7.484375 -18.515625 8.359375 -17.796875 C 9.234375 -17.085938 10.160156 -16.46875 11.140625 -15.9375 C 11.410156 -15.800781 11.675781 -15.675781 11.9375 -15.5625 C 12.195312 -15.457031 12.476562 -15.382812 12.78125 -15.34375 C 13.5625 -15.21875 14.007812 -15.550781 14.125 -16.34375 C 14.132812 -16.5 14.132812 -16.65625 14.125 -16.8125 C 14.113281 -16.976562 14.085938 -17.140625 14.046875 -17.296875 C 13.941406 -18.210938 13.722656 -19.09375 13.390625 -19.9375 C 13.066406 -20.78125 12.695312 -21.617188 12.28125 -22.453125 C 12.15625 -22.671875 12.007812 -22.828125 11.84375 -22.921875 C 11.675781 -23.015625 11.46875 -23.066406 11.21875 -23.078125 C 8.3125 -23.335938 5.65625 -24.234375 3.25 -25.765625 C 2.664062 -26.160156 2.113281 -26.585938 1.59375 -27.046875 C 1.082031 -27.503906 0.644531 -28.054688 0.28125 -28.703125 C -0.207031 -29.554688 -0.304688 -30.363281 -0.015625 -31.125 C 0.273438 -31.894531 0.867188 -32.460938 1.765625 -32.828125 C 2.273438 -33.015625 2.78125 -33.113281 3.28125 -33.125 C 3.78125 -33.144531 4.28125 -33.097656 4.78125 -32.984375 C 5.4375 -32.804688 6.050781 -32.5625 6.625 -32.25 C 7.207031 -31.9375 7.75 -31.582031 8.25 -31.1875 C 9.25 -30.394531 10.148438 -29.535156 10.953125 -28.609375 C 11.765625 -27.691406 12.523438 -26.722656 13.234375 -25.703125 C 13.453125 -25.390625 13.695312 -25.175781 13.96875 -25.0625 C 14.238281 -24.957031 14.5625 -24.945312 14.9375 -25.03125 C 16.800781 -25.34375 18.457031 -26.125 19.90625 -27.375 C 20.070312 -27.5 20.21875 -27.582031 20.34375 -27.625 C 20.46875 -27.664062 20.613281 -27.59375 20.78125 -27.40625 C 20.90625 -27.25 20.941406 -27.109375 20.890625 -26.984375 C 20.835938 -26.867188 20.753906 -26.753906 20.640625 -26.640625 C 20.148438 -26.140625 19.617188 -25.679688 19.046875 -25.265625 C 18.484375 -24.859375 17.878906 -24.503906 17.234375 -24.203125 C 16.953125 -24.097656 16.671875 -23.984375 16.390625 -23.859375 C 16.117188 -23.742188 15.835938 -23.628906 15.546875 -23.515625 C 15.210938 -23.378906 15.03125 -23.28125 15 -23.21875 C 14.96875 -23.15625 15.03125 -22.96875 15.1875 -22.65625 C 15.394531 -22.269531 15.59375 -21.882812 15.78125 -21.5 C 15.96875 -21.113281 16.140625 -20.707031 16.296875 -20.28125 C 16.410156 -19.957031 16.503906 -19.632812 16.578125 -19.3125 C 16.648438 -18.988281 16.707031 -18.664062 16.75 -18.34375 C 16.851562 -17.363281 16.695312 -16.5 16.28125 -15.75 C 15.863281 -15.007812 15.296875 -14.335938 14.578125 -13.734375 C 12.109375 -11.679688 9.441406 -11.507812 6.578125 -13.21875 C 6.367188 -13.34375 6.160156 -13.46875 5.953125 -13.59375 C 5.753906 -13.71875 5.523438 -13.859375 5.265625 -14.015625 C 5.285156 -13.816406 5.328125 -13.640625 5.390625 -13.484375 C 5.453125 -13.335938 5.515625 -13.179688 5.578125 -13.015625 C 5.898438 -12.285156 6.210938 -11.546875 6.515625 -10.796875 C 6.816406 -10.054688 7.082031 -9.3125 7.3125 -8.5625 C 7.46875 -8.050781 7.59375 -7.539062 7.6875 -7.03125 C 7.789062 -6.519531 7.851562 -5.988281 7.875 -5.4375 C 7.882812 -4.570312 7.582031 -3.851562 6.96875 -3.28125 C 6.0625 -2.445312 5.257812 -2 4.5625 -1.9375 C 3.863281 -1.875 3.066406 -2.050781 2.171875 -2.46875 C 1.429688 -2.832031 0.742188 -3.269531 0.109375 -3.78125 C -0.523438 -4.289062 -1.144531 -4.84375 -1.75 -5.4375 C -2.84375 -6.457031 -3.832031 -7.578125 -4.71875 -8.796875 C -5.613281 -10.023438 -6.457031 -11.269531 -7.25 -12.53125 C -8.101562 -13.894531 -8.898438 -15.28125 -9.640625 -16.6875 C -10.378906 -18.09375 -11.070312 -19.519531 -11.71875 -20.96875 C -11.8125 -21.238281 -11.914062 -21.476562 -12.03125 -21.6875 C -12.195312 -22.132812 -12.257812 -22.425781 -12.21875 -22.5625 C -12.1875 -22.695312 -11.972656 -22.90625 -11.578125 -23.1875 C -11.429688 -23.289062 -11.28125 -23.394531 -11.125 -23.5 C -10.96875 -23.613281 -10.804688 -23.734375 -10.640625 -23.859375 C -10.265625 -24.140625 -10 -24.273438 -9.84375 -24.265625 C -9.695312 -24.253906 -9.46875 -24.066406 -9.15625 -23.703125 C -8.382812 -22.804688 -7.679688 -21.882812 -7.046875 -20.9375 C -6.171875 -19.644531 -5.289062 -18.335938 -4.40625 -17.015625 C -3.519531 -15.691406 -2.617188 -14.378906 -1.703125 -13.078125 C -0.722656 -11.710938 0.320312 -10.398438 1.4375 -9.140625 C 2.5625 -7.890625 3.765625 -6.703125 5.046875 -5.578125 C 5.171875 -5.472656 5.304688 -5.351562 5.453125 -5.21875 Z M 2.328125 -29.90625 C 3.335938 -28.625 4.523438 -27.660156 5.890625 -27.015625 C 7.253906 -26.378906 8.691406 -25.867188 10.203125 -25.484375 C 9.578125 -26.503906 8.890625 -27.4375 8.140625 -28.28125 C 7.398438 -29.132812 6.546875 -29.882812 5.578125 -30.53125 C 5.191406 -30.769531 4.796875 -30.984375 4.390625 -31.171875 C 3.984375 -31.359375 3.554688 -31.484375 3.109375 -31.546875 C 2.867188 -31.585938 2.613281 -31.625 2.34375 -31.65625 C 2.082031 -31.6875 1.882812 -31.597656 1.75 -31.390625 C 1.59375 -31.160156 1.59375 -30.929688 1.75 -30.703125 C 1.90625 -30.484375 2.054688 -30.269531 2.203125 -30.0625 C 2.234375 -30.019531 2.273438 -29.96875 2.328125 -29.90625 Z M 2.328125 -29.90625 "/></g></g></g><g fill="#f0f4e5" fill-opacity="1"><g transform="translate(134.128616, 94.817817)"><g><path d="M 1.625 -4.0625 C 0.695312 -4.945312 -0.128906 -5.945312 -0.859375 -7.0625 C -1.585938 -8.1875 -2.289062 -9.550781 -2.96875 -11.15625 C -3.6875 -13.070312 -4.210938 -15.203125 -4.546875 -17.546875 C -4.878906 -19.898438 -4.929688 -22.328125 -4.703125 -24.828125 C -4.609375 -25.753906 -4.421875 -26.628906 -4.140625 -27.453125 C -4.054688 -27.722656 -3.953125 -27.972656 -3.828125 -28.203125 C -3.710938 -28.441406 -3.554688 -28.664062 -3.359375 -28.875 C -2.804688 -29.488281 -2.113281 -29.765625 -1.28125 -29.703125 C -0.40625 -29.640625 0.40625 -29.425781 1.15625 -29.0625 C 1.90625 -28.707031 2.632812 -28.285156 3.34375 -27.796875 C 4.488281 -27.015625 5.488281 -26.097656 6.34375 -25.046875 C 7.207031 -23.992188 7.984375 -22.878906 8.671875 -21.703125 C 8.910156 -21.304688 9.128906 -20.898438 9.328125 -20.484375 C 9.535156 -20.078125 9.75 -19.65625 9.96875 -19.21875 C 10.132812 -18.894531 10.265625 -18.707031 10.359375 -18.65625 C 10.453125 -18.601562 10.691406 -18.59375 11.078125 -18.625 C 11.554688 -18.664062 12.003906 -18.785156 12.421875 -18.984375 C 12.835938 -19.179688 13.234375 -19.414062 13.609375 -19.6875 C 14.078125 -20.019531 14.492188 -20.390625 14.859375 -20.796875 C 15.222656 -21.210938 15.585938 -21.644531 15.953125 -22.09375 C 16.035156 -22.175781 16.101562 -22.265625 16.15625 -22.359375 C 16.21875 -22.453125 16.289062 -22.535156 16.375 -22.609375 C 16.476562 -22.703125 16.570312 -22.816406 16.65625 -22.953125 C 16.75 -23.097656 16.90625 -23.09375 17.125 -22.9375 C 17.644531 -22.5625 17.757812 -22.171875 17.46875 -21.765625 C 16.769531 -20.734375 15.960938 -19.859375 15.046875 -19.140625 C 14.128906 -18.429688 13.078125 -17.90625 11.890625 -17.5625 C 11.566406 -17.46875 11.328125 -17.398438 11.171875 -17.359375 C 11.015625 -17.316406 10.941406 -17.210938 10.953125 -17.046875 C 10.960938 -16.878906 11.046875 -16.585938 11.203125 -16.171875 C 11.578125 -15.140625 11.898438 -14.109375 12.171875 -13.078125 C 12.441406 -12.046875 12.625 -11 12.71875 -9.9375 C 12.78125 -9.269531 12.800781 -8.609375 12.78125 -7.953125 C 12.769531 -7.304688 12.679688 -6.65625 12.515625 -6 C 12.265625 -5.019531 11.832031 -4.226562 11.21875 -3.625 C 10.613281 -3.03125 9.832031 -2.578125 8.875 -2.265625 C 7.476562 -1.835938 6.175781 -1.785156 4.96875 -2.109375 C 3.757812 -2.429688 2.644531 -3.082031 1.625 -4.0625 Z M 0.8125 -19.9375 C 0.695312 -20.007812 0.585938 -20.085938 0.484375 -20.171875 C 0.390625 -20.253906 0.257812 -20.285156 0.09375 -20.265625 C 0.101562 -20.210938 0.0976562 -20.160156 0.078125 -20.109375 C 0.0546875 -20.066406 0.0507812 -20.023438 0.0625 -19.984375 C 0.53125 -17.890625 1.125 -15.84375 1.84375 -13.84375 C 2.5625 -11.851562 3.460938 -9.929688 4.546875 -8.078125 C 4.929688 -7.429688 5.351562 -6.8125 5.8125 -6.21875 C 6.28125 -5.625 6.804688 -5.082031 7.390625 -4.59375 C 7.921875 -4.132812 8.359375 -3.941406 8.703125 -4.015625 C 9.054688 -4.097656 9.382812 -4.457031 9.6875 -5.09375 C 9.863281 -5.53125 9.992188 -5.972656 10.078125 -6.421875 C 10.171875 -6.878906 10.234375 -7.335938 10.265625 -7.796875 C 10.367188 -9.328125 10.269531 -10.820312 9.96875 -12.28125 C 9.675781 -13.738281 9.269531 -15.1875 8.75 -16.625 C 8.613281 -17.007812 8.328125 -17.21875 7.890625 -17.25 C 6.578125 -17.320312 5.332031 -17.597656 4.15625 -18.078125 C 2.988281 -18.566406 1.875 -19.1875 0.8125 -19.9375 Z M 7.28125 -19.03125 C 7.300781 -19.007812 7.34375 -19 7.40625 -19 C 7.476562 -19.007812 7.570312 -19.019531 7.6875 -19.03125 C 7.539062 -19.519531 7.34375 -19.976562 7.09375 -20.40625 C 6.851562 -20.832031 6.613281 -21.242188 6.375 -21.640625 C 5.707031 -22.691406 4.957031 -23.679688 4.125 -24.609375 C 3.289062 -25.546875 2.335938 -26.351562 1.265625 -27.03125 C 1.015625 -27.195312 0.765625 -27.335938 0.515625 -27.453125 C 0.265625 -27.578125 -0.0078125 -27.675781 -0.3125 -27.75 C -0.570312 -27.8125 -0.753906 -27.800781 -0.859375 -27.71875 C -0.960938 -27.644531 -1.015625 -27.460938 -1.015625 -27.171875 C -1.046875 -26.703125 -1.007812 -26.234375 -0.90625 -25.765625 C -0.8125 -25.304688 -0.613281 -24.867188 -0.3125 -24.453125 C 0.632812 -23.128906 1.742188 -22.019531 3.015625 -21.125 C 4.296875 -20.238281 5.71875 -19.539062 7.28125 -19.03125 Z M 7.28125 -19.03125 "/></g></g></g><g fill="#f0f4e5" fill-opacity="1"><g transform="translate(156.466233, 85.517455)"><g><path d="M 3.671875 -23.125 C 3.722656 -23.101562 3.769531 -23.097656 3.8125 -23.109375 C 3.851562 -23.117188 3.898438 -23.128906 3.953125 -23.140625 C 4.117188 -23.609375 4.300781 -24.078125 4.5 -24.546875 C 4.707031 -25.015625 4.941406 -25.472656 5.203125 -25.921875 C 5.453125 -26.359375 5.734375 -26.765625 6.046875 -27.140625 C 6.367188 -27.523438 6.734375 -27.867188 7.140625 -28.171875 C 7.984375 -28.796875 8.882812 -29.113281 9.84375 -29.125 C 10.800781 -29.144531 11.679688 -28.90625 12.484375 -28.40625 C 13.285156 -27.914062 13.890625 -27.191406 14.296875 -26.234375 C 15.585938 -23.171875 15.46875 -20.132812 13.9375 -17.125 C 12.632812 -14.539062 10.691406 -12.628906 8.109375 -11.390625 C 7.984375 -11.316406 7.847656 -11.253906 7.703125 -11.203125 C 7.554688 -11.148438 7.441406 -11.066406 7.359375 -10.953125 C 7.328125 -10.847656 7.335938 -10.769531 7.390625 -10.71875 C 7.441406 -10.664062 7.492188 -10.609375 7.546875 -10.546875 C 8.304688 -9.890625 9.023438 -9.191406 9.703125 -8.453125 C 10.390625 -7.710938 11.066406 -6.953125 11.734375 -6.171875 C 12.328125 -5.472656 13.003906 -4.804688 13.765625 -4.171875 C 13.859375 -4.085938 13.941406 -4.019531 14.015625 -3.96875 C 14.085938 -3.925781 14.160156 -3.878906 14.234375 -3.828125 C 14.773438 -3.453125 15.222656 -3.300781 15.578125 -3.375 C 15.929688 -3.457031 16.273438 -3.789062 16.609375 -4.375 C 16.878906 -4.84375 17.09375 -5.34375 17.25 -5.875 C 17.40625 -6.414062 17.539062 -6.96875 17.65625 -7.53125 C 17.820312 -8.226562 17.9375 -8.9375 18 -9.65625 C 18.0625 -10.375 18.097656 -11.09375 18.109375 -11.8125 C 18.140625 -12.238281 18.222656 -12.507812 18.359375 -12.625 C 18.492188 -12.75 18.757812 -12.804688 19.15625 -12.796875 C 19.425781 -12.804688 19.566406 -12.679688 19.578125 -12.421875 C 19.585938 -12.171875 19.59375 -11.914062 19.59375 -11.65625 C 19.601562 -11.40625 19.601562 -11.148438 19.59375 -10.890625 C 19.550781 -10.035156 19.472656 -9.1875 19.359375 -8.34375 C 19.253906 -7.5 19.09375 -6.671875 18.875 -5.859375 C 18.8125 -5.691406 18.75 -5.523438 18.6875 -5.359375 C 18.632812 -5.191406 18.578125 -5.03125 18.515625 -4.875 C 18.085938 -3.894531 17.46875 -3.148438 16.65625 -2.640625 C 15.851562 -2.140625 14.972656 -1.894531 14.015625 -1.90625 C 13.066406 -1.914062 12.164062 -2.238281 11.3125 -2.875 C 10.613281 -3.363281 9.984375 -3.90625 9.421875 -4.5 C 8.859375 -5.101562 8.296875 -5.71875 7.734375 -6.34375 C 7.640625 -6.445312 7.546875 -6.546875 7.453125 -6.640625 C 7.367188 -6.734375 7.265625 -6.84375 7.140625 -6.96875 C 7.265625 -6.363281 7.375 -5.785156 7.46875 -5.234375 C 7.570312 -4.691406 7.691406 -4.15625 7.828125 -3.625 C 7.898438 -3.25 7.988281 -2.875 8.09375 -2.5 C 8.195312 -2.132812 8.285156 -1.757812 8.359375 -1.375 C 8.429688 -1.03125 8.429688 -0.796875 8.359375 -0.671875 C 8.296875 -0.546875 8.085938 -0.429688 7.734375 -0.328125 C 7.472656 -0.242188 7.210938 -0.164062 6.953125 -0.09375 C 6.691406 -0.0195312 6.425781 0.0546875 6.15625 0.140625 C 5.707031 0.304688 5.390625 0.148438 5.203125 -0.328125 C 5.117188 -0.628906 5.03125 -0.921875 4.9375 -1.203125 C 4.851562 -1.484375 4.769531 -1.78125 4.6875 -2.09375 C 4.363281 -3.207031 4.046875 -4.316406 3.734375 -5.421875 C 3.429688 -6.535156 3.128906 -7.648438 2.828125 -8.765625 C 2.785156 -8.867188 2.753906 -8.972656 2.734375 -9.078125 C 2.710938 -9.191406 2.679688 -9.304688 2.640625 -9.421875 C 2.546875 -9.867188 2.285156 -10.078125 1.859375 -10.046875 C 1.585938 -10.035156 1.316406 -10.046875 1.046875 -10.078125 C 0.773438 -10.109375 0.503906 -10.140625 0.234375 -10.171875 C -0.046875 -10.203125 -0.242188 -10.316406 -0.359375 -10.515625 C -0.472656 -10.710938 -0.476562 -10.9375 -0.375 -11.1875 C -0.332031 -11.320312 -0.273438 -11.398438 -0.203125 -11.421875 C -0.140625 -11.453125 -0.046875 -11.46875 0.078125 -11.46875 C 0.234375 -11.457031 0.398438 -11.441406 0.578125 -11.421875 C 0.753906 -11.410156 0.9375 -11.414062 1.125 -11.4375 C 1.613281 -11.394531 1.894531 -11.414062 1.96875 -11.5 C 2.050781 -11.582031 2.039062 -11.859375 1.9375 -12.328125 C 1.769531 -13.085938 1.601562 -13.835938 1.4375 -14.578125 C 1.28125 -15.328125 1.132812 -16.082031 1 -16.84375 C 0.71875 -18.25 0.429688 -19.648438 0.140625 -21.046875 C -0.140625 -22.453125 -0.359375 -23.863281 -0.515625 -25.28125 C -0.535156 -25.675781 -0.554688 -26.070312 -0.578125 -26.46875 C -0.597656 -26.875 -0.628906 -27.273438 -0.671875 -27.671875 C -0.722656 -28.148438 -0.53125 -28.46875 -0.09375 -28.625 C 0.175781 -28.726562 0.441406 -28.835938 0.703125 -28.953125 C 0.972656 -29.066406 1.242188 -29.171875 1.515625 -29.265625 C 1.785156 -29.367188 1.96875 -29.394531 2.0625 -29.34375 C 2.164062 -29.289062 2.269531 -29.140625 2.375 -28.890625 C 2.59375 -28.148438 2.796875 -27.375 2.984375 -26.5625 C 3.128906 -25.988281 3.253906 -25.410156 3.359375 -24.828125 C 3.460938 -24.242188 3.566406 -23.675781 3.671875 -23.125 Z M 8.984375 -13.453125 C 10.410156 -14.753906 11.332031 -16.207031 11.75 -17.8125 C 12.164062 -19.425781 12.289062 -21.101562 12.125 -22.84375 C 11.945312 -23.507812 11.75 -24.128906 11.53125 -24.703125 C 11.3125 -25.285156 11.015625 -25.816406 10.640625 -26.296875 C 10.523438 -26.441406 10.410156 -26.582031 10.296875 -26.71875 C 10.191406 -26.851562 10.066406 -26.976562 9.921875 -27.09375 C 9.515625 -27.351562 9.1875 -27.472656 8.9375 -27.453125 C 8.6875 -27.441406 8.40625 -27.253906 8.09375 -26.890625 C 7.59375 -26.367188 7.1875 -25.789062 6.875 -25.15625 C 6.5625 -24.53125 6.273438 -23.894531 6.015625 -23.25 C 5.335938 -21.445312 5.039062 -19.640625 5.125 -17.828125 C 5.21875 -16.015625 5.484375 -14.195312 5.921875 -12.375 C 6.015625 -12 6.25 -11.882812 6.625 -12.03125 C 7.039062 -12.195312 7.453125 -12.390625 7.859375 -12.609375 C 8.265625 -12.835938 8.640625 -13.117188 8.984375 -13.453125 Z M 8.984375 -13.453125 "/></g></g></g><g fill="#f0f4e5" fill-opacity="1"><g transform="translate(177.205625, 81.482118)"><g><path d="M -0.84375 -10 C -0.4375 -9.976562 -0.03125 -9.921875 0.375 -9.828125 C 0.78125 -9.734375 1.210938 -9.632812 1.671875 -9.53125 C 1.660156 -10.394531 1.648438 -11.222656 1.640625 -12.015625 C 1.640625 -12.804688 1.640625 -13.585938 1.640625 -14.359375 C 1.609375 -15.859375 1.566406 -17.347656 1.515625 -18.828125 C 1.472656 -20.316406 1.4375 -21.796875 1.40625 -23.265625 C 1.394531 -23.835938 1.40625 -24.398438 1.4375 -24.953125 C 1.476562 -25.503906 1.535156 -26.054688 1.609375 -26.609375 C 1.640625 -26.859375 1.707031 -27.0625 1.8125 -27.21875 C 1.925781 -27.375 2.117188 -27.460938 2.390625 -27.484375 C 2.960938 -27.503906 3.535156 -27.507812 4.109375 -27.5 C 4.691406 -27.5 5.273438 -27.492188 5.859375 -27.484375 C 6.296875 -27.460938 6.488281 -27.179688 6.4375 -26.640625 C 6.40625 -25.703125 6.363281 -24.769531 6.3125 -23.84375 C 6.257812 -22.914062 6.21875 -21.988281 6.1875 -21.0625 C 6.144531 -19.332031 6.109375 -17.613281 6.078125 -15.90625 C 6.046875 -14.195312 6.007812 -12.476562 5.96875 -10.75 C 5.96875 -10.613281 5.976562 -10.472656 6 -10.328125 C 6.019531 -10.179688 6.03125 -10.039062 6.03125 -9.90625 C 6.1875 -9.8125 6.3125 -9.8125 6.40625 -9.90625 C 6.507812 -10 6.609375 -10.085938 6.703125 -10.171875 C 8.410156 -11.640625 9.878906 -13.300781 11.109375 -15.15625 C 12.347656 -17.007812 13.300781 -19.082031 13.96875 -21.375 C 14.226562 -22.300781 14.472656 -23.242188 14.703125 -24.203125 C 14.941406 -25.160156 15.179688 -26.101562 15.421875 -27.03125 C 15.578125 -27.601562 15.710938 -27.925781 15.828125 -28 C 15.941406 -28.082031 16.257812 -28.113281 16.78125 -28.09375 C 17.28125 -28.050781 17.628906 -27.992188 17.828125 -27.921875 C 18.035156 -27.859375 18.148438 -27.707031 18.171875 -27.46875 C 18.191406 -27.238281 18.164062 -26.835938 18.09375 -26.265625 C 17.164062 -18.503906 13.742188 -12.53125 7.828125 -8.34375 C 7.734375 -8.269531 7.640625 -8.207031 7.546875 -8.15625 C 7.453125 -8.101562 7.378906 -8.003906 7.328125 -7.859375 C 7.328125 -7.722656 7.40625 -7.644531 7.5625 -7.625 C 9.425781 -7.332031 11.242188 -7.328125 13.015625 -7.609375 C 14.796875 -7.890625 16.523438 -8.535156 18.203125 -9.546875 C 18.609375 -9.796875 18.988281 -10.082031 19.34375 -10.40625 C 19.695312 -10.726562 20.054688 -11.054688 20.421875 -11.390625 C 20.535156 -11.460938 20.65625 -11.554688 20.78125 -11.671875 C 20.90625 -11.785156 21.035156 -11.738281 21.171875 -11.53125 C 21.265625 -11.375 21.335938 -11.191406 21.390625 -10.984375 C 21.453125 -10.785156 21.394531 -10.582031 21.21875 -10.375 C 20.8125 -9.851562 20.347656 -9.410156 19.828125 -9.046875 C 18.859375 -8.335938 17.828125 -7.773438 16.734375 -7.359375 C 15.648438 -6.941406 14.535156 -6.648438 13.390625 -6.484375 C 12.273438 -6.296875 11.164062 -6.195312 10.0625 -6.1875 C 8.96875 -6.1875 7.863281 -6.304688 6.75 -6.546875 C 6.4375 -6.609375 6.238281 -6.601562 6.15625 -6.53125 C 6.082031 -6.46875 6.054688 -6.242188 6.078125 -5.859375 C 6.109375 -4.703125 6.109375 -3.550781 6.078125 -2.40625 C 6.054688 -1.257812 6.070312 -0.125 6.125 1 C 6.175781 1.6875 6.140625 2.097656 6.015625 2.234375 C 5.890625 2.367188 5.519531 2.460938 4.90625 2.515625 C 4.632812 2.515625 4.363281 2.519531 4.09375 2.53125 C 3.820312 2.539062 3.550781 2.550781 3.28125 2.5625 C 2.957031 2.5625 2.75 2.519531 2.65625 2.4375 C 2.570312 2.363281 2.507812 2.144531 2.46875 1.78125 C 2.382812 1.101562 2.304688 0.429688 2.234375 -0.234375 C 2.160156 -0.898438 2.113281 -1.578125 2.09375 -2.265625 C 2.09375 -2.734375 2.070312 -3.203125 2.03125 -3.671875 C 1.988281 -4.140625 1.957031 -4.597656 1.9375 -5.046875 C 1.90625 -5.546875 1.691406 -5.757812 1.296875 -5.6875 C 0.566406 -5.570312 -0.203125 -5.582031 -1.015625 -5.71875 C -1.410156 -5.769531 -1.800781 -5.859375 -2.1875 -5.984375 C -2.570312 -6.109375 -2.9375 -6.304688 -3.28125 -6.578125 C -3.75 -6.953125 -3.992188 -7.367188 -4.015625 -7.828125 C -4.035156 -8.296875 -3.816406 -8.726562 -3.359375 -9.125 C -2.992188 -9.46875 -2.597656 -9.695312 -2.171875 -9.8125 C -1.742188 -9.925781 -1.300781 -9.988281 -0.84375 -10 Z M -1.265625 -7.328125 C -1.046875 -7.203125 -0.8125 -7.117188 -0.5625 -7.078125 C -0.3125 -7.046875 -0.00390625 -7.03125 0.359375 -7.03125 C 0.453125 -7.0625 0.582031 -7.085938 0.75 -7.109375 C 0.914062 -7.128906 1.09375 -7.164062 1.28125 -7.21875 C 1.394531 -7.238281 1.515625 -7.269531 1.640625 -7.3125 C 1.765625 -7.363281 1.828125 -7.492188 1.828125 -7.703125 C 1.828125 -7.859375 1.769531 -7.96875 1.65625 -8.03125 C 1.550781 -8.101562 1.453125 -8.148438 1.359375 -8.171875 C 1.066406 -8.253906 0.785156 -8.347656 0.515625 -8.453125 C 0.242188 -8.554688 -0.0234375 -8.640625 -0.296875 -8.703125 C -0.503906 -8.742188 -0.765625 -8.753906 -1.078125 -8.734375 C -1.398438 -8.679688 -1.59375 -8.472656 -1.65625 -8.109375 C -1.695312 -7.929688 -1.671875 -7.78125 -1.578125 -7.65625 C -1.484375 -7.53125 -1.378906 -7.421875 -1.265625 -7.328125 Z M -1.265625 -7.328125 "/></g></g></g><g fill="#f0f4e5" fill-opacity="1"><g transform="translate(197.944814, 81.303316)"><g><path d="M 3.640625 -2.421875 C 3.390625 -3.671875 3.285156 -4.960938 3.328125 -6.296875 C 3.367188 -7.640625 3.570312 -9.15625 3.9375 -10.84375 C 4.4375 -12.84375 5.210938 -14.898438 6.265625 -17.015625 C 7.328125 -19.140625 8.671875 -21.160156 10.296875 -23.078125 C 10.890625 -23.773438 11.546875 -24.390625 12.265625 -24.921875 C 12.484375 -25.085938 12.707031 -25.234375 12.9375 -25.359375 C 13.164062 -25.484375 13.421875 -25.578125 13.703125 -25.640625 C 14.515625 -25.828125 15.238281 -25.660156 15.875 -25.140625 C 16.570312 -24.578125 17.125 -23.9375 17.53125 -23.21875 C 17.9375 -22.5 18.289062 -21.734375 18.59375 -20.921875 C 19.101562 -19.617188 19.40625 -18.289062 19.5 -16.9375 C 19.601562 -15.59375 19.601562 -14.238281 19.5 -12.875 C 19.476562 -12.425781 19.429688 -11.972656 19.359375 -11.515625 C 19.296875 -11.054688 19.226562 -10.585938 19.15625 -10.109375 C 19.101562 -9.742188 19.097656 -9.507812 19.140625 -9.40625 C 19.191406 -9.3125 19.382812 -9.171875 19.71875 -8.984375 C 20.125 -8.742188 20.554688 -8.585938 21.015625 -8.515625 C 21.484375 -8.441406 21.945312 -8.40625 22.40625 -8.40625 C 22.976562 -8.414062 23.53125 -8.484375 24.0625 -8.609375 C 24.601562 -8.742188 25.144531 -8.890625 25.6875 -9.046875 C 25.8125 -9.078125 25.921875 -9.113281 26.015625 -9.15625 C 26.117188 -9.195312 26.234375 -9.222656 26.359375 -9.234375 C 26.492188 -9.253906 26.640625 -9.296875 26.796875 -9.359375 C 26.953125 -9.421875 27.066406 -9.328125 27.140625 -9.078125 C 27.359375 -8.484375 27.234375 -8.09375 26.765625 -7.90625 C 25.609375 -7.46875 24.445312 -7.21875 23.28125 -7.15625 C 22.125 -7.09375 20.960938 -7.253906 19.796875 -7.640625 C 19.472656 -7.753906 19.234375 -7.835938 19.078125 -7.890625 C 18.929688 -7.953125 18.816406 -7.910156 18.734375 -7.765625 C 18.648438 -7.617188 18.546875 -7.328125 18.421875 -6.890625 C 18.140625 -5.828125 17.816406 -4.796875 17.453125 -3.796875 C 17.085938 -2.804688 16.640625 -1.84375 16.109375 -0.90625 C 15.785156 -0.320312 15.429688 0.226562 15.046875 0.75 C 14.660156 1.28125 14.210938 1.769531 13.703125 2.21875 C 12.953125 2.863281 12.148438 3.257812 11.296875 3.40625 C 10.453125 3.550781 9.550781 3.476562 8.59375 3.1875 C 7.195312 2.738281 6.09375 2.039062 5.28125 1.09375 C 4.476562 0.144531 3.929688 -1.023438 3.640625 -2.421875 Z M 12.03125 -15.90625 C 11.976562 -16.039062 11.9375 -16.164062 11.90625 -16.28125 C 11.875 -16.40625 11.789062 -16.503906 11.65625 -16.578125 C 11.625 -16.535156 11.582031 -16.503906 11.53125 -16.484375 C 11.488281 -16.460938 11.46875 -16.429688 11.46875 -16.390625 C 10.644531 -14.390625 9.957031 -12.367188 9.40625 -10.328125 C 8.851562 -8.285156 8.5 -6.1875 8.34375 -4.03125 C 8.28125 -3.28125 8.269531 -2.53125 8.3125 -1.78125 C 8.363281 -1.03125 8.488281 -0.289062 8.6875 0.4375 C 8.863281 1.113281 9.117188 1.519531 9.453125 1.65625 C 9.785156 1.789062 10.253906 1.679688 10.859375 1.328125 C 11.253906 1.085938 11.617188 0.800781 11.953125 0.46875 C 12.285156 0.144531 12.59375 -0.191406 12.875 -0.546875 C 13.832031 -1.742188 14.609375 -3.023438 15.203125 -4.390625 C 15.796875 -5.765625 16.285156 -7.1875 16.671875 -8.65625 C 16.765625 -9.050781 16.644531 -9.390625 16.3125 -9.671875 C 15.269531 -10.484375 14.40625 -11.414062 13.71875 -12.46875 C 13.039062 -13.53125 12.476562 -14.675781 12.03125 -15.90625 Z M 16.828125 -11.484375 C 16.847656 -11.453125 16.882812 -11.421875 16.9375 -11.390625 C 16.988281 -11.359375 17.0625 -11.3125 17.15625 -11.25 C 17.320312 -11.75 17.425781 -12.238281 17.46875 -12.71875 C 17.507812 -13.207031 17.546875 -13.679688 17.578125 -14.140625 C 17.640625 -15.398438 17.59375 -16.644531 17.4375 -17.875 C 17.289062 -19.113281 16.957031 -20.316406 16.4375 -21.484375 C 16.332031 -21.765625 16.210938 -22.023438 16.078125 -22.265625 C 15.941406 -22.503906 15.769531 -22.738281 15.5625 -22.96875 C 15.382812 -23.164062 15.226562 -23.265625 15.09375 -23.265625 C 14.96875 -23.265625 14.828125 -23.144531 14.671875 -22.90625 C 14.378906 -22.53125 14.132812 -22.125 13.9375 -21.6875 C 13.75 -21.25 13.660156 -20.773438 13.671875 -20.265625 C 13.703125 -18.640625 13.988281 -17.09375 14.53125 -15.625 C 15.070312 -14.164062 15.835938 -12.785156 16.828125 -11.484375 Z M 16.828125 -11.484375 "/></g></g></g><g fill="#f0f4e5" fill-opacity="1"><g transform="translate(221.539942, 86.265924)"><g><path d="M 16.375 -3.046875 C 16.332031 -3.066406 16.296875 -3.082031 16.265625 -3.09375 C 16.234375 -3.113281 16.195312 -3.128906 16.15625 -3.140625 C 15.6875 -2.640625 15.203125 -2.140625 14.703125 -1.640625 C 14.203125 -1.140625 13.691406 -0.660156 13.171875 -0.203125 C 12.773438 0.117188 12.367188 0.4375 11.953125 0.75 C 11.546875 1.070312 11.140625 1.375 10.734375 1.65625 C 10.140625 2.144531 9.453125 2.375 8.671875 2.34375 C 7.898438 2.320312 7.15625 2.128906 6.4375 1.765625 C 5.71875 1.410156 5.117188 0.925781 4.640625 0.3125 C 4.171875 -0.289062 3.941406 -0.960938 3.953125 -1.703125 C 3.929688 -2.421875 3.988281 -3.125 4.125 -3.8125 C 4.257812 -4.5 4.429688 -5.175781 4.640625 -5.84375 C 4.953125 -6.976562 5.363281 -8.070312 5.875 -9.125 C 6.394531 -10.175781 6.941406 -11.222656 7.515625 -12.265625 C 8.117188 -13.398438 8.75 -14.519531 9.40625 -15.625 C 10.070312 -16.738281 10.765625 -17.847656 11.484375 -18.953125 C 11.816406 -19.484375 12.082031 -19.847656 12.28125 -20.046875 C 12.476562 -20.242188 12.71875 -20.3125 13 -20.25 C 13.28125 -20.195312 13.710938 -20.039062 14.296875 -19.78125 C 14.859375 -19.53125 15.390625 -19.296875 15.890625 -19.078125 C 16.234375 -18.878906 16.425781 -18.726562 16.46875 -18.625 C 16.519531 -18.53125 16.425781 -18.320312 16.1875 -18 C 15.625 -17.195312 15.082031 -16.375 14.5625 -15.53125 C 14.050781 -14.6875 13.539062 -13.835938 13.03125 -12.984375 C 12.195312 -11.554688 11.378906 -10.117188 10.578125 -8.671875 C 9.785156 -7.234375 9.078125 -5.75 8.453125 -4.21875 C 8.234375 -3.664062 8.035156 -3.109375 7.859375 -2.546875 C 7.679688 -1.984375 7.5625 -1.40625 7.5 -0.8125 C 7.476562 -0.65625 7.46875 -0.503906 7.46875 -0.359375 C 7.46875 -0.222656 7.472656 -0.078125 7.484375 0.078125 C 7.578125 0.742188 7.941406 0.96875 8.578125 0.75 C 8.847656 0.664062 9.109375 0.546875 9.359375 0.390625 C 9.609375 0.242188 9.847656 0.09375 10.078125 -0.0625 C 11.140625 -0.851562 12.148438 -1.695312 13.109375 -2.59375 C 14.066406 -3.488281 14.988281 -4.4375 15.875 -5.4375 C 17.144531 -6.875 18.394531 -8.34375 19.625 -9.84375 C 20.863281 -11.34375 22.085938 -12.835938 23.296875 -14.328125 C 23.546875 -14.617188 23.722656 -14.78125 23.828125 -14.8125 C 23.929688 -14.84375 24.160156 -14.78125 24.515625 -14.625 C 24.785156 -14.5 25.046875 -14.367188 25.296875 -14.234375 C 25.753906 -14.003906 26.003906 -13.816406 26.046875 -13.671875 C 26.085938 -13.535156 26 -13.25 25.78125 -12.8125 C 25.320312 -11.832031 24.796875 -10.90625 24.203125 -10.03125 C 23.617188 -9.15625 23.0625 -8.25 22.53125 -7.3125 C 21.445312 -5.519531 20.359375 -3.71875 19.265625 -1.90625 C 18.179688 -0.09375 17.1875 1.78125 16.28125 3.71875 C 16.125 4.0625 15.988281 4.410156 15.875 4.765625 C 15.769531 5.128906 15.660156 5.5 15.546875 5.875 C 15.503906 6.082031 15.46875 6.289062 15.4375 6.5 C 15.40625 6.707031 15.394531 6.914062 15.40625 7.125 C 15.394531 7.613281 15.472656 7.910156 15.640625 8.015625 C 15.804688 8.117188 16.109375 8.054688 16.546875 7.828125 C 17.203125 7.503906 17.804688 7.117188 18.359375 6.671875 C 18.921875 6.222656 19.445312 5.726562 19.9375 5.1875 C 20.65625 4.40625 21.375 3.628906 22.09375 2.859375 C 22.8125 2.097656 23.492188 1.300781 24.140625 0.46875 C 24.316406 0.21875 24.476562 0.015625 24.625 -0.140625 C 24.800781 -0.285156 24.957031 -0.320312 25.09375 -0.25 C 25.238281 -0.175781 25.375 -0.0859375 25.5 0.015625 C 25.65625 0.109375 25.710938 0.207031 25.671875 0.3125 C 25.640625 0.425781 25.585938 0.539062 25.515625 0.65625 C 24.816406 1.625 24.066406 2.539062 23.265625 3.40625 C 22.472656 4.269531 21.664062 5.132812 20.84375 6 C 20.363281 6.507812 19.863281 6.96875 19.34375 7.375 C 18.832031 7.789062 18.285156 8.175781 17.703125 8.53125 C 17.179688 8.832031 16.65625 8.992188 16.125 9.015625 C 15.59375 9.046875 15.0625 8.875 14.53125 8.5 C 14.101562 8.1875 13.804688 7.742188 13.640625 7.171875 C 13.503906 6.773438 13.4375 6.378906 13.4375 5.984375 C 13.445312 5.585938 13.484375 5.195312 13.546875 4.8125 C 13.734375 3.769531 14.003906 2.769531 14.359375 1.8125 C 14.710938 0.863281 15.085938 -0.0820312 15.484375 -1.03125 C 15.628906 -1.363281 15.773438 -1.695312 15.921875 -2.03125 C 16.078125 -2.375 16.226562 -2.710938 16.375 -3.046875 Z M 16.375 -3.046875 "/></g></g></g><g fill="#f0f4e5" fill-opacity="1"><g transform="translate(242.814092, 96.139851)"><g><path d="M 18.859375 -16.046875 C 18.941406 -16.128906 19.039062 -16.207031 19.15625 -16.28125 C 19.269531 -16.363281 19.34375 -16.484375 19.375 -16.640625 C 19.09375 -16.890625 18.773438 -17.109375 18.421875 -17.296875 C 18.078125 -17.492188 17.722656 -17.671875 17.359375 -17.828125 C 16.453125 -18.296875 15.515625 -18.703125 14.546875 -19.046875 C 13.585938 -19.398438 12.59375 -19.640625 11.5625 -19.765625 C 11.207031 -19.828125 11 -19.898438 10.9375 -19.984375 C 10.875 -20.078125 10.84375 -20.300781 10.84375 -20.65625 C 10.800781 -21.226562 10.804688 -21.632812 10.859375 -21.875 C 10.921875 -22.113281 11.078125 -22.253906 11.328125 -22.296875 C 11.578125 -22.335938 11.984375 -22.328125 12.546875 -22.265625 C 16.285156 -21.804688 19.484375 -20.257812 22.140625 -17.625 C 22.367188 -17.414062 22.578125 -17.207031 22.765625 -17 C 22.960938 -16.789062 23.148438 -16.566406 23.328125 -16.328125 C 24.117188 -15.316406 24.992188 -14.410156 25.953125 -13.609375 C 26.910156 -12.816406 27.941406 -12.078125 29.046875 -11.390625 C 29.097656 -11.359375 29.160156 -11.320312 29.234375 -11.28125 C 29.304688 -11.238281 29.367188 -11.1875 29.421875 -11.125 C 29.710938 -10.9375 29.867188 -10.789062 29.890625 -10.6875 C 29.910156 -10.582031 29.847656 -10.40625 29.703125 -10.15625 C 29.503906 -9.8125 29.335938 -9.613281 29.203125 -9.5625 C 29.066406 -9.507812 28.863281 -9.578125 28.59375 -9.765625 C 27.644531 -10.359375 26.675781 -10.925781 25.6875 -11.46875 C 24.695312 -12.007812 23.8125 -12.695312 23.03125 -13.53125 C 22.78125 -13.8125 22.609375 -13.941406 22.515625 -13.921875 C 22.421875 -13.898438 22.253906 -13.738281 22.015625 -13.4375 C 20.472656 -11.476562 18.863281 -9.566406 17.1875 -7.703125 C 15.519531 -5.847656 13.914062 -3.9375 12.375 -1.96875 C 11.625 -1.050781 10.882812 -0.125 10.15625 0.8125 C 9.425781 1.757812 8.785156 2.757812 8.234375 3.8125 C 8.066406 4.144531 7.90625 4.472656 7.75 4.796875 C 7.59375 5.117188 7.46875 5.46875 7.375 5.84375 C 7.28125 6.113281 7.273438 6.304688 7.359375 6.421875 C 7.453125 6.546875 7.648438 6.628906 7.953125 6.671875 C 8.210938 6.679688 8.476562 6.671875 8.75 6.640625 C 9.019531 6.609375 9.285156 6.546875 9.546875 6.453125 C 10.078125 6.304688 10.601562 6.113281 11.125 5.875 C 11.644531 5.632812 12.15625 5.390625 12.65625 5.140625 C 13.96875 4.421875 15.234375 3.613281 16.453125 2.71875 C 17.671875 1.832031 18.851562 0.90625 20 -0.0625 C 20.125 -0.1875 20.25 -0.296875 20.375 -0.390625 C 20.5 -0.484375 20.617188 -0.582031 20.734375 -0.6875 C 20.953125 -0.863281 21.179688 -0.859375 21.421875 -0.671875 C 21.722656 -0.460938 21.882812 -0.269531 21.90625 -0.09375 C 21.925781 0.0703125 21.785156 0.273438 21.484375 0.515625 C 20.203125 1.628906 18.894531 2.710938 17.5625 3.765625 C 16.238281 4.816406 14.820312 5.75 13.3125 6.5625 C 12.84375 6.820312 12.359375 7.066406 11.859375 7.296875 C 11.367188 7.523438 10.867188 7.734375 10.359375 7.921875 C 9.316406 8.253906 8.347656 8.257812 7.453125 7.9375 C 6.554688 7.625 5.785156 7.0625 5.140625 6.25 C 4.796875 5.820312 4.570312 5.375 4.46875 4.90625 C 4.375 4.4375 4.367188 3.941406 4.453125 3.421875 C 4.554688 2.710938 4.726562 2.03125 4.96875 1.375 C 5.21875 0.726562 5.507812 0.0859375 5.84375 -0.546875 C 6.832031 -2.566406 7.988281 -4.460938 9.3125 -6.234375 C 10.644531 -8.015625 12.097656 -9.71875 13.671875 -11.34375 C 14.484375 -12.175781 15.316406 -12.984375 16.171875 -13.765625 C 17.035156 -14.546875 17.929688 -15.304688 18.859375 -16.046875 Z M 18.859375 -16.046875 "/></g></g></g><g fill="#f0f4e5" fill-opacity="1"><g transform="translate(257.608713, 106.814134)"><g/></g></g><g fill="#f0f4e5" fill-opacity="1"><g transform="translate(114.707111, 302.962082)"><g><path d="M 8.609375 2.96875 C 8.609375 2.96875 8.625 3.097656 8.65625 3.359375 C 9.007812 3.234375 9.328125 3.0625 9.609375 2.84375 C 9.898438 2.625 10.179688 2.410156 10.453125 2.203125 C 11.421875 1.410156 12.304688 0.5625 13.109375 -0.34375 C 13.921875 -1.257812 14.722656 -2.207031 15.515625 -3.1875 C 16.285156 -4.144531 17.066406 -5.101562 17.859375 -6.0625 C 18.648438 -7.03125 19.425781 -8 20.1875 -8.96875 C 20.476562 -9.375 20.765625 -9.800781 21.046875 -10.25 C 21.328125 -10.695312 21.628906 -11.128906 21.953125 -11.546875 C 22.253906 -11.953125 22.484375 -12.175781 22.640625 -12.21875 C 22.804688 -12.269531 23.128906 -12.191406 23.609375 -11.984375 C 23.835938 -11.910156 24.066406 -11.8125 24.296875 -11.6875 C 24.535156 -11.5625 24.769531 -11.460938 25 -11.390625 C 25.3125 -11.304688 25.515625 -11.15625 25.609375 -10.9375 C 25.703125 -10.71875 25.734375 -10.46875 25.703125 -10.1875 C 25.609375 -9.257812 25.453125 -8.351562 25.234375 -7.46875 C 25.023438 -6.582031 24.804688 -5.691406 24.578125 -4.796875 C 24.273438 -3.492188 23.984375 -2.175781 23.703125 -0.84375 C 23.421875 0.476562 23.269531 1.8125 23.25 3.15625 C 23.25 3.519531 23.265625 3.867188 23.296875 4.203125 C 23.328125 4.546875 23.390625 4.894531 23.484375 5.25 C 23.796875 6.144531 24.398438 6.4375 25.296875 6.125 C 25.484375 6.0625 25.660156 5.976562 25.828125 5.875 C 25.992188 5.78125 26.148438 5.671875 26.296875 5.546875 C 27.210938 4.921875 28.035156 4.191406 28.765625 3.359375 C 29.492188 2.535156 30.1875 1.675781 30.84375 0.78125 C 31.007812 0.53125 31.097656 0.285156 31.109375 0.046875 C 31.117188 -0.179688 31.0625 -0.429688 30.9375 -0.703125 C 29.613281 -3.960938 29.109375 -7.300781 29.421875 -10.71875 C 29.515625 -11.570312 29.664062 -12.398438 29.875 -13.203125 C 30.082031 -14.015625 30.429688 -14.785156 30.921875 -15.515625 C 31.566406 -16.523438 32.378906 -17.082031 33.359375 -17.1875 C 34.347656 -17.300781 35.28125 -16.984375 36.15625 -16.234375 C 36.65625 -15.785156 37.050781 -15.296875 37.34375 -14.765625 C 37.644531 -14.242188 37.867188 -13.675781 38.015625 -13.0625 C 38.171875 -12.257812 38.238281 -11.460938 38.21875 -10.671875 C 38.207031 -9.890625 38.132812 -9.109375 38 -8.328125 C 37.695312 -6.835938 37.273438 -5.40625 36.734375 -4.03125 C 36.191406 -2.65625 35.566406 -1.304688 34.859375 0.015625 C 34.640625 0.421875 34.546875 0.796875 34.578125 1.140625 C 34.609375 1.492188 34.773438 1.847656 35.078125 2.203125 C 36.453125 4.046875 38.203125 5.394531 40.328125 6.25 C 40.546875 6.351562 40.710938 6.460938 40.828125 6.578125 C 40.953125 6.691406 40.960938 6.890625 40.859375 7.171875 C 40.753906 7.390625 40.625 7.5 40.46875 7.5 C 40.320312 7.507812 40.15625 7.488281 39.96875 7.4375 C 39.144531 7.175781 38.351562 6.859375 37.59375 6.484375 C 36.84375 6.109375 36.132812 5.660156 35.46875 5.140625 C 35.1875 4.890625 34.90625 4.644531 34.625 4.40625 C 34.351562 4.175781 34.078125 3.929688 33.796875 3.671875 C 33.472656 3.410156 33.257812 3.28125 33.15625 3.28125 C 33.0625 3.28125 32.894531 3.445312 32.65625 3.78125 C 32.363281 4.226562 32.0625 4.65625 31.75 5.0625 C 31.4375 5.476562 31.097656 5.890625 30.734375 6.296875 C 30.453125 6.585938 30.160156 6.863281 29.859375 7.125 C 29.554688 7.382812 29.234375 7.617188 28.890625 7.828125 C 27.890625 8.492188 26.878906 8.804688 25.859375 8.765625 C 24.847656 8.734375 23.820312 8.503906 22.78125 8.078125 C 19.207031 6.554688 17.550781 3.785156 17.8125 -0.234375 C 17.820312 -0.515625 17.84375 -0.800781 17.875 -1.09375 C 17.90625 -1.382812 17.929688 -1.71875 17.953125 -2.09375 C 17.734375 -1.957031 17.554688 -1.8125 17.421875 -1.65625 C 17.296875 -1.507812 17.171875 -1.351562 17.046875 -1.1875 C 16.429688 -0.457031 15.8125 0.269531 15.1875 1 C 14.5625 1.738281 13.910156 2.453125 13.234375 3.140625 C 12.753906 3.585938 12.265625 4 11.765625 4.375 C 11.273438 4.757812 10.742188 5.109375 10.171875 5.421875 C 9.253906 5.929688 8.320312 6.007812 7.375 5.65625 C 5.976562 5.144531 5.050781 4.535156 4.59375 3.828125 C 4.144531 3.117188 3.894531 2.160156 3.84375 0.953125 C 3.820312 -0.046875 3.910156 -1.023438 4.109375 -1.984375 C 4.316406 -2.953125 4.566406 -3.90625 4.859375 -4.84375 C 5.359375 -6.59375 6.015625 -8.28125 6.828125 -9.90625 C 7.640625 -11.539062 8.515625 -13.132812 9.453125 -14.6875 C 10.421875 -16.34375 11.457031 -17.957031 12.5625 -19.53125 C 13.664062 -21.101562 14.816406 -22.632812 16.015625 -24.125 C 16.253906 -24.375 16.453125 -24.613281 16.609375 -24.84375 C 17.003906 -25.289062 17.285156 -25.53125 17.453125 -25.5625 C 17.617188 -25.59375 17.957031 -25.472656 18.46875 -25.203125 C 18.664062 -25.109375 18.863281 -25.003906 19.0625 -24.890625 C 19.257812 -24.785156 19.46875 -24.6875 19.6875 -24.59375 C 20.21875 -24.320312 20.519531 -24.097656 20.59375 -23.921875 C 20.664062 -23.753906 20.59375 -23.40625 20.375 -22.875 C 19.820312 -21.570312 19.226562 -20.316406 18.59375 -19.109375 C 17.664062 -17.453125 16.734375 -15.78125 15.796875 -14.09375 C 14.867188 -12.414062 13.957031 -10.726562 13.0625 -9.03125 C 12.144531 -7.238281 11.320312 -5.394531 10.59375 -3.5 C 9.875 -1.613281 9.265625 0.328125 8.765625 2.328125 C 8.710938 2.515625 8.660156 2.726562 8.609375 2.96875 Z M 33.328125 -14.015625 C 32.535156 -12.203125 32.171875 -10.394531 32.234375 -8.59375 C 32.296875 -6.789062 32.539062 -4.960938 32.96875 -3.109375 C 33.707031 -4.335938 34.328125 -5.585938 34.828125 -6.859375 C 35.328125 -8.128906 35.660156 -9.46875 35.828125 -10.875 C 35.867188 -11.4375 35.875 -11.976562 35.84375 -12.5 C 35.820312 -13.03125 35.71875 -13.554688 35.53125 -14.078125 C 35.445312 -14.347656 35.347656 -14.640625 35.234375 -14.953125 C 35.117188 -15.265625 34.921875 -15.425781 34.640625 -15.4375 C 34.296875 -15.476562 34.046875 -15.347656 33.890625 -15.046875 C 33.742188 -14.753906 33.59375 -14.484375 33.4375 -14.234375 C 33.414062 -14.191406 33.378906 -14.117188 33.328125 -14.015625 Z M 33.328125 -14.015625 "/></g></g></g><g fill="#f0f4e5" fill-opacity="1"><g transform="translate(157.310559, 320.430745)"><g><path d="M 22.109375 1.265625 C 22.171875 1.648438 22.242188 2.046875 22.328125 2.453125 C 22.421875 2.867188 22.59375 3.285156 22.84375 3.703125 C 23.144531 3.460938 23.414062 3.203125 23.65625 2.921875 C 23.90625 2.640625 24.125 2.363281 24.3125 2.09375 C 26.96875 -1.6875 29.296875 -5.691406 31.296875 -9.921875 C 31.359375 -10.066406 31.429688 -10.25 31.515625 -10.46875 C 31.679688 -10.851562 31.957031 -10.96875 32.34375 -10.8125 C 32.476562 -10.738281 32.601562 -10.6875 32.71875 -10.65625 C 32.84375 -10.625 32.972656 -10.59375 33.109375 -10.5625 C 33.578125 -10.382812 33.726562 -10.046875 33.5625 -9.546875 C 33.363281 -9.078125 33.160156 -8.597656 32.953125 -8.109375 C 32.753906 -7.628906 32.539062 -7.15625 32.3125 -6.6875 C 31.476562 -4.988281 30.597656 -3.316406 29.671875 -1.671875 C 28.742188 -0.0234375 27.769531 1.601562 26.75 3.21875 C 26.539062 3.519531 26.328125 3.816406 26.109375 4.109375 C 25.898438 4.398438 25.671875 4.679688 25.421875 4.953125 C 24.773438 5.566406 23.992188 5.847656 23.078125 5.796875 C 21.929688 5.710938 20.957031 5.398438 20.15625 4.859375 C 19.363281 4.316406 18.742188 3.5 18.296875 2.40625 C 17.710938 0.820312 17.238281 -0.769531 16.875 -2.375 C 16.519531 -3.988281 16.253906 -5.625 16.078125 -7.28125 C 15.929688 -8.425781 15.832031 -9.566406 15.78125 -10.703125 C 15.726562 -11.835938 15.703125 -12.96875 15.703125 -14.09375 C 15.703125 -14.59375 15.660156 -14.894531 15.578125 -15 C 15.492188 -15.101562 15.195312 -15.210938 14.6875 -15.328125 C 14.363281 -15.390625 14.046875 -15.453125 13.734375 -15.515625 C 13.429688 -15.585938 13.117188 -15.65625 12.796875 -15.71875 C 12.328125 -15.832031 12.035156 -15.859375 11.921875 -15.796875 C 11.816406 -15.742188 11.65625 -15.515625 11.4375 -15.109375 C 10.675781 -13.609375 9.9375 -12.085938 9.21875 -10.546875 C 8.5 -9.003906 7.78125 -7.453125 7.0625 -5.890625 C 6.644531 -4.941406 6.226562 -3.988281 5.8125 -3.03125 C 5.40625 -2.082031 4.972656 -1.128906 4.515625 -0.171875 C 4.328125 0.316406 4.140625 0.738281 3.953125 1.09375 C 3.453125 2.03125 2.773438 2.179688 1.921875 1.546875 C 1.722656 1.378906 1.660156 1.207031 1.734375 1.03125 C 1.773438 0.894531 1.828125 0.753906 1.890625 0.609375 C 1.953125 0.460938 2.003906 0.316406 2.046875 0.171875 C 3.160156 -2.453125 4.300781 -5.066406 5.46875 -7.671875 C 6.632812 -10.285156 7.894531 -12.863281 9.25 -15.40625 C 9.28125 -15.476562 9.320312 -15.5625 9.375 -15.65625 C 9.425781 -15.75 9.472656 -15.832031 9.515625 -15.90625 C 9.648438 -16.195312 9.546875 -16.390625 9.203125 -16.484375 C 7.960938 -16.828125 6.722656 -17.007812 5.484375 -17.03125 C 4.242188 -17.0625 3.015625 -16.804688 1.796875 -16.265625 C 1.640625 -16.203125 1.484375 -16.144531 1.328125 -16.09375 C 1.171875 -16.039062 1.003906 -15.984375 0.828125 -15.921875 C 0.492188 -15.796875 0.171875 -15.757812 -0.140625 -15.8125 C -0.453125 -15.863281 -0.769531 -15.960938 -1.09375 -16.109375 C -1.550781 -16.316406 -1.597656 -16.582031 -1.234375 -16.90625 C -0.953125 -17.175781 -0.632812 -17.398438 -0.28125 -17.578125 C 1.46875 -18.554688 3.328125 -18.992188 5.296875 -18.890625 C 6.023438 -18.859375 6.757812 -18.789062 7.5 -18.6875 C 8.25 -18.582031 9 -18.421875 9.75 -18.203125 C 10.332031 -18.046875 10.765625 -18.222656 11.046875 -18.734375 C 12.085938 -20.753906 13.15625 -22.753906 14.25 -24.734375 C 15.351562 -26.710938 16.40625 -28.710938 17.40625 -30.734375 C 17.550781 -30.992188 17.664062 -31.242188 17.75 -31.484375 C 18.039062 -32.109375 18.257812 -32.472656 18.40625 -32.578125 C 18.550781 -32.691406 18.96875 -32.707031 19.65625 -32.625 C 20.320312 -32.539062 20.785156 -32.472656 21.046875 -32.421875 C 21.304688 -32.378906 21.453125 -32.226562 21.484375 -31.96875 C 21.523438 -31.71875 21.535156 -31.238281 21.515625 -30.53125 C 21.429688 -28.257812 21.347656 -25.992188 21.265625 -23.734375 C 21.179688 -21.472656 21.101562 -19.21875 21.03125 -16.96875 C 21.019531 -16.882812 21.019531 -16.789062 21.03125 -16.6875 C 21.050781 -16.582031 21.050781 -16.476562 21.03125 -16.375 C 21 -15.863281 21.269531 -15.554688 21.84375 -15.453125 C 22.457031 -15.378906 23.085938 -15.289062 23.734375 -15.1875 C 24.378906 -15.09375 25.007812 -15.03125 25.625 -15 C 25.84375 -15.007812 26.066406 -15 26.296875 -14.96875 C 26.535156 -14.9375 26.757812 -14.851562 26.96875 -14.71875 C 27.082031 -14.625 27.179688 -14.53125 27.265625 -14.4375 C 27.347656 -14.34375 27.378906 -14.210938 27.359375 -14.046875 C 27.347656 -13.910156 27.289062 -13.8125 27.1875 -13.75 C 27.082031 -13.695312 26.976562 -13.65625 26.875 -13.625 C 26.726562 -13.550781 26.5625 -13.507812 26.375 -13.5 C 26.195312 -13.488281 26.023438 -13.484375 25.859375 -13.484375 C 25.222656 -13.453125 24.585938 -13.472656 23.953125 -13.546875 C 23.316406 -13.628906 22.6875 -13.722656 22.0625 -13.828125 C 21.601562 -13.890625 21.316406 -13.878906 21.203125 -13.796875 C 21.097656 -13.710938 21.046875 -13.429688 21.046875 -12.953125 C 21.085938 -10.578125 21.164062 -8.207031 21.28125 -5.84375 C 21.394531 -3.476562 21.671875 -1.109375 22.109375 1.265625 Z M 16.109375 -24 C 15.535156 -22.9375 14.96875 -21.878906 14.40625 -20.828125 C 13.851562 -19.785156 13.296875 -18.734375 12.734375 -17.671875 C 13.128906 -17.453125 13.503906 -17.300781 13.859375 -17.21875 C 14.222656 -17.132812 14.582031 -17.070312 14.9375 -17.03125 C 15.300781 -16.957031 15.523438 -16.945312 15.609375 -17 C 15.691406 -17.0625 15.742188 -17.300781 15.765625 -17.71875 C 15.785156 -18.625 15.84375 -19.535156 15.9375 -20.453125 C 16.03125 -21.378906 16.132812 -22.3125 16.25 -23.25 C 16.257812 -23.34375 16.28125 -23.457031 16.3125 -23.59375 C 16.34375 -23.726562 16.273438 -23.863281 16.109375 -24 Z M 16.109375 -24 "/></g></g></g><g fill="#f0f4e5" fill-opacity="1"><g transform="translate(193.918529, 323.517471)"><g><path d="M 8.328125 -5.375 C 8.367188 -5.269531 8.410156 -5.164062 8.453125 -5.0625 C 8.492188 -4.957031 8.550781 -4.816406 8.625 -4.640625 C 8.757812 -5.015625 8.847656 -5.363281 8.890625 -5.6875 C 8.929688 -6.007812 8.957031 -6.320312 8.96875 -6.625 C 9.445312 -10.550781 9.960938 -14.476562 10.515625 -18.40625 C 11.078125 -22.332031 11.707031 -26.238281 12.40625 -30.125 C 12.625 -31.195312 13.28125 -31.6875 14.375 -31.59375 C 14.726562 -31.550781 14.929688 -31.332031 14.984375 -30.9375 C 15.066406 -30.332031 15.132812 -29.75 15.1875 -29.1875 C 15.34375 -27.882812 15.515625 -26.566406 15.703125 -25.234375 C 15.890625 -23.910156 16.179688 -22.613281 16.578125 -21.34375 C 16.847656 -20.382812 17.207031 -19.46875 17.65625 -18.59375 C 18.113281 -17.71875 18.679688 -16.910156 19.359375 -16.171875 C 20.003906 -15.472656 20.601562 -15.054688 21.15625 -14.921875 C 21.71875 -14.796875 22.457031 -14.929688 23.375 -15.328125 C 24.050781 -15.648438 24.421875 -15.46875 24.484375 -14.78125 C 24.503906 -14.613281 24.472656 -14.484375 24.390625 -14.390625 C 24.304688 -14.296875 24.195312 -14.210938 24.0625 -14.140625 C 23.738281 -13.898438 23.398438 -13.722656 23.046875 -13.609375 C 22.691406 -13.492188 22.328125 -13.425781 21.953125 -13.40625 C 21.585938 -13.382812 21.234375 -13.375 20.890625 -13.375 C 20.546875 -13.382812 20.191406 -13.390625 19.828125 -13.390625 C 19.128906 -13.421875 18.5 -13.578125 17.9375 -13.859375 C 17.375 -14.148438 16.851562 -14.535156 16.375 -15.015625 C 15.695312 -15.671875 15.132812 -16.382812 14.6875 -17.15625 C 14.238281 -17.9375 13.84375 -18.765625 13.5 -19.640625 C 13.457031 -19.734375 13.425781 -19.847656 13.40625 -19.984375 C 13.382812 -20.117188 13.273438 -20.234375 13.078125 -20.328125 C 13.015625 -20.128906 12.972656 -19.921875 12.953125 -19.703125 C 12.929688 -19.484375 12.90625 -19.28125 12.875 -19.09375 C 12.53125 -16.363281 12.207031 -13.632812 11.90625 -10.90625 C 11.613281 -8.175781 11.28125 -5.460938 10.90625 -2.765625 C 10.863281 -2.335938 10.800781 -1.910156 10.71875 -1.484375 C 10.644531 -1.066406 10.582031 -0.644531 10.53125 -0.21875 C 10.4375 0.375 10.070312 0.769531 9.4375 0.96875 C 8.78125 1.175781 8.226562 1.210938 7.78125 1.078125 C 7.332031 0.941406 6.894531 0.613281 6.46875 0.09375 C 6 -0.46875 5.578125 -1.070312 5.203125 -1.71875 C 4.828125 -2.363281 4.484375 -3.019531 4.171875 -3.6875 C 3.253906 -5.5625 2.46875 -7.5 1.8125 -9.5 C 1.15625 -11.5 0.617188 -13.546875 0.203125 -15.640625 C -0.0351562 -16.921875 -0.285156 -18.21875 -0.546875 -19.53125 C -0.816406 -20.851562 -1.03125 -22.179688 -1.1875 -23.515625 C -1.25 -24.128906 -1.296875 -24.753906 -1.328125 -25.390625 C -1.359375 -26.023438 -1.363281 -26.65625 -1.34375 -27.28125 C -1.332031 -27.757812 -1.265625 -28.0625 -1.140625 -28.1875 C -1.023438 -28.320312 -0.734375 -28.445312 -0.265625 -28.5625 C 0.015625 -28.65625 0.300781 -28.738281 0.59375 -28.8125 C 0.882812 -28.882812 1.195312 -28.953125 1.53125 -29.015625 C 2.019531 -29.171875 2.332031 -28.992188 2.46875 -28.484375 C 2.613281 -28.035156 2.75 -27.578125 2.875 -27.109375 C 3.007812 -26.648438 3.140625 -26.1875 3.265625 -25.71875 C 3.609375 -24.175781 3.941406 -22.628906 4.265625 -21.078125 C 4.597656 -19.523438 4.9375 -17.972656 5.28125 -16.421875 C 5.675781 -14.546875 6.128906 -12.691406 6.640625 -10.859375 C 7.148438 -9.023438 7.710938 -7.195312 8.328125 -5.375 Z M 8.328125 -5.375 "/></g></g></g><g fill="#f0f4e5" fill-opacity="1"><g transform="translate(224.971396, 318.180658)"><g><path d="M -1.90625 -31.578125 C -1.707031 -30.160156 -1.394531 -28.765625 -0.96875 -27.390625 C -0.550781 -26.015625 -0.0859375 -24.660156 0.421875 -23.328125 C 0.671875 -22.546875 0.941406 -21.769531 1.234375 -21 C 1.523438 -20.238281 1.8125 -19.488281 2.09375 -18.75 C 2.28125 -18.226562 2.628906 -18.039062 3.140625 -18.1875 C 4.453125 -18.5625 5.78125 -18.9375 7.125 -19.3125 C 8.476562 -19.695312 9.75 -20.253906 10.9375 -20.984375 C 11.101562 -21.078125 11.253906 -21.132812 11.390625 -21.15625 C 11.546875 -21.21875 11.707031 -21.242188 11.875 -21.234375 C 12.050781 -21.234375 12.203125 -21.148438 12.328125 -20.984375 C 12.472656 -20.773438 12.484375 -20.601562 12.359375 -20.46875 C 12.234375 -20.332031 12.101562 -20.210938 11.96875 -20.109375 C 11.695312 -19.898438 11.394531 -19.703125 11.0625 -19.515625 C 10.738281 -19.328125 10.425781 -19.148438 10.125 -18.984375 C 9.15625 -18.523438 8.160156 -18.125 7.140625 -17.78125 C 6.128906 -17.445312 5.125 -17.101562 4.125 -16.75 C 3.570312 -16.550781 3.257812 -16.394531 3.1875 -16.28125 C 3.113281 -16.164062 3.195312 -15.84375 3.4375 -15.3125 C 4.195312 -13.519531 4.953125 -11.738281 5.703125 -9.96875 C 6.460938 -8.195312 7.332031 -6.476562 8.3125 -4.8125 C 8.53125 -4.476562 8.757812 -4.144531 9 -3.8125 C 9.238281 -3.476562 9.5 -3.175781 9.78125 -2.90625 C 10.269531 -2.445312 10.671875 -2.21875 10.984375 -2.21875 C 11.304688 -2.21875 11.679688 -2.457031 12.109375 -2.9375 C 12.398438 -3.226562 12.660156 -3.523438 12.890625 -3.828125 C 13.128906 -4.140625 13.34375 -4.445312 13.53125 -4.75 C 14.257812 -5.78125 14.914062 -6.851562 15.5 -7.96875 C 16.09375 -9.082031 16.570312 -10.242188 16.9375 -11.453125 C 16.976562 -11.597656 17.035156 -11.753906 17.109375 -11.921875 C 17.285156 -12.367188 17.476562 -12.625 17.6875 -12.6875 C 17.894531 -12.75 18.207031 -12.65625 18.625 -12.40625 C 18.9375 -12.207031 19.050781 -11.945312 18.96875 -11.625 C 18.851562 -11.3125 18.742188 -10.984375 18.640625 -10.640625 C 18.535156 -10.296875 18.429688 -9.96875 18.328125 -9.65625 C 17.304688 -7.15625 15.941406 -4.816406 14.234375 -2.640625 C 13.429688 -1.640625 12.457031 -0.925781 11.3125 -0.5 C 10.175781 -0.0703125 9.003906 0.0390625 7.796875 -0.15625 C 6.597656 -0.351562 5.519531 -0.875 4.5625 -1.71875 C 3.65625 -2.5 2.878906 -3.363281 2.234375 -4.3125 C 1.585938 -5.257812 0.96875 -6.238281 0.375 -7.25 C -0.6875 -9.144531 -1.628906 -11.144531 -2.453125 -13.25 C -2.660156 -13.800781 -2.828125 -14.09375 -2.953125 -14.125 C -3.085938 -14.164062 -3.414062 -13.988281 -3.9375 -13.59375 C -4.113281 -13.457031 -4.296875 -13.316406 -4.484375 -13.171875 C -4.671875 -13.035156 -4.847656 -12.890625 -5.015625 -12.734375 C -5.109375 -12.679688 -5.191406 -12.625 -5.265625 -12.5625 C -5.347656 -12.5 -5.429688 -12.453125 -5.515625 -12.421875 C -5.710938 -12.347656 -5.929688 -12.253906 -6.171875 -12.140625 C -6.410156 -12.035156 -6.617188 -12.09375 -6.796875 -12.3125 C -6.929688 -12.476562 -6.925781 -12.65625 -6.78125 -12.84375 C -6.632812 -13.03125 -6.492188 -13.207031 -6.359375 -13.375 C -6.046875 -13.75 -5.710938 -14.09375 -5.359375 -14.40625 C -5.003906 -14.726562 -4.628906 -15.03125 -4.234375 -15.3125 C -3.859375 -15.601562 -3.644531 -15.804688 -3.59375 -15.921875 C -3.550781 -16.046875 -3.601562 -16.347656 -3.75 -16.828125 C -4.257812 -18.335938 -4.707031 -19.875 -5.09375 -21.4375 C -5.488281 -23 -5.796875 -24.578125 -6.015625 -26.171875 C -6.117188 -26.835938 -6.1875 -27.488281 -6.21875 -28.125 C -6.25 -28.769531 -6.234375 -29.425781 -6.171875 -30.09375 C -5.941406 -33.050781 -4.351562 -34.757812 -1.40625 -35.21875 C -0.300781 -35.40625 0.8125 -35.507812 1.9375 -35.53125 C 3.0625 -35.5625 4.179688 -35.671875 5.296875 -35.859375 C 5.578125 -35.867188 5.753906 -35.773438 5.828125 -35.578125 C 5.972656 -35.285156 5.921875 -35.046875 5.671875 -34.859375 C 5.503906 -34.734375 5.332031 -34.640625 5.15625 -34.578125 C 4.976562 -34.515625 4.789062 -34.457031 4.59375 -34.40625 C 3.800781 -34.195312 2.988281 -34.046875 2.15625 -33.953125 C 1.332031 -33.867188 0.5 -33.785156 -0.34375 -33.703125 C -0.925781 -33.628906 -1.347656 -33.539062 -1.609375 -33.4375 C -1.867188 -33.34375 -2.007812 -33.160156 -2.03125 -32.890625 C -2.050781 -32.617188 -2.007812 -32.179688 -1.90625 -31.578125 Z M -1.90625 -31.578125 "/></g></g></g><g fill="#f0f4e5" fill-opacity="1"><g transform="translate(250.027848, 307.762959)"><g/></g></g><g clip-path="url(#db2d18871f)"><g clip-path="url(#fa559f4beb)"><g clip-path="url(#b6a2baeaca)"><path fill="#000000" d="M 209.617188 181.980469 C 205.339844 180.503906 200.945312 179.175781 196.476562 177.996094 C 196.203125 176.773438 195.707031 175.652344 194.988281 174.625 C 193.945312 173.15625 192.742188 171.832031 191.386719 170.644531 C 192.941406 170.972656 194.234375 171.746094 195.261719 172.960938 C 199.082031 165.558594 206.9375 162.402344 206.921875 151.476562 C 209.433594 145.152344 207.492188 140.621094 206.59375 136.789062 C 207.300781 137.445312 207.769531 138.238281 208.003906 139.171875 C 209.074219 136.898438 210.417969 134.84375 209.179688 131.488281 C 210.925781 133.652344 210.652344 135.667969 209.429688 138.523438 C 212.113281 137.835938 213.519531 136.535156 214.441406 134.996094 C 215.023438 134.023438 215.375 132.578125 216.070312 131.40625 C 216.960938 129.898438 217.824219 128.921875 217.707031 128.085938 C 217.554688 127.375 217.339844 126.679688 217.066406 126.007812 C 216.421875 124.464844 215.558594 123.058594 214.480469 121.78125 C 213.402344 120.503906 212.160156 119.417969 210.75 118.519531 C 207.332031 116.277344 203.964844 115.644531 201.113281 113.359375 C 200.957031 113.230469 200.78125 113.136719 200.582031 113.078125 C 199.527344 112.746094 198.300781 112.519531 197.3125 112.707031 C 195.957031 112.960938 194.96875 113.566406 193.332031 113.550781 C 193.027344 113.546875 192.742188 113.625 192.484375 113.785156 C 192.269531 113.914062 192.074219 114.066406 191.890625 114.238281 C 191.6875 114.425781 191.546875 114.652344 191.464844 114.917969 C 191.382812 115.183594 191.371094 115.449219 191.429688 115.722656 C 191.644531 116.792969 191.445312 117.941406 191.597656 118.742188 C 191.632812 118.9375 191.726562 119.09375 191.878906 119.21875 C 192.03125 119.339844 192.207031 119.402344 192.402344 119.398438 C 193.136719 119.371094 193.855469 119.464844 194.558594 119.679688 C 194.832031 119.773438 195.113281 119.789062 195.398438 119.730469 C 195.683594 119.667969 195.933594 119.539062 196.144531 119.339844 C 196.835938 118.710938 197.4375 117.910156 198.414062 117.707031 C 198.890625 117.261719 199.261719 116.738281 199.527344 116.136719 C 199.792969 115.539062 199.933594 114.914062 199.945312 114.257812 C 200.558594 115.585938 200.132812 116.90625 199.414062 118.167969 C 202.382812 119.367188 202.785156 123.195312 205.804688 125.855469 C 208.652344 123.9375 211.828125 126.75 215.226562 126.742188 C 212 128.234375 208.582031 124.335938 204.808594 127.691406 C 205.808594 127.667969 206.683594 128.128906 207.496094 128.660156 C 202.527344 127.6875 197.644531 129.289062 194.8125 134.019531 C 195.398438 134.132812 195.976562 134.109375 196.550781 133.953125 C 196.136719 134.382812 195.632812 134.65625 195.042969 134.769531 C 194.160156 134.980469 193.753906 134.957031 193.007812 134.414062 C 192.21875 133.769531 191.585938 132.992188 191.109375 132.089844 C 190.40625 130.890625 190.046875 130.539062 190.246094 129.128906 C 190.371094 128.242188 190.613281 127.285156 190.367188 125.941406 C 189.890625 123.300781 187.734375 120.882812 185.054688 120.386719 C 181.988281 119.816406 178.109375 121.847656 176.328125 124.28125 C 175.738281 125.066406 175.429688 125.949219 175.40625 126.929688 C 175.386719 127.589844 175.59375 128.109375 175.546875 128.695312 C 175.476562 129.042969 175.480469 129.386719 175.554688 129.734375 C 175.6875 130.003906 175.890625 130.210938 176.160156 130.347656 C 176.496094 130.566406 176.515625 130.71875 176.328125 131.054688 C 176.074219 131.476562 175.914062 131.929688 175.84375 132.414062 C 175.734375 133.011719 175.609375 133.5625 175.460938 134.148438 C 175.429688 134.277344 175.523438 134.402344 175.648438 134.5 C 175.875 134.710938 176.140625 134.773438 176.4375 134.691406 C 176.605469 134.660156 176.726562 134.613281 176.847656 134.589844 C 177.0625 134.542969 177.21875 134.558594 177.300781 134.722656 C 177.371094 134.890625 177.375 135.058594 177.316406 135.234375 C 177.265625 135.375 177.261719 135.519531 177.3125 135.664062 C 177.433594 135.832031 177.589844 135.953125 177.78125 136.027344 C 177.964844 136.109375 178.039062 136.25 178.011719 136.449219 C 178.003906 136.511719 178.003906 136.578125 178.011719 136.644531 C 178.066406 136.933594 178.324219 136.953125 178.511719 137.175781 C 178.664062 137.363281 178.746094 137.578125 178.753906 137.820312 C 178.78125 138.25 178.648438 138.351562 179.015625 138.746094 C 179.203125 138.9375 179.417969 139.082031 179.667969 139.179688 C 180.667969 139.589844 181.730469 138.730469 182.484375 138.128906 C 184.007812 136.914062 185.328125 135.078125 185.703125 133.1875 C 186.285156 135.113281 184.25 137.640625 182.695312 139.03125 C 183.179688 139.265625 183.492188 139.644531 183.632812 140.164062 C 184.984375 139.566406 185.808594 137.609375 187.363281 137.980469 C 185.242188 138.609375 184.4375 141.601562 181.628906 141.484375 C 182.347656 142.148438 182.691406 142.96875 182.660156 143.949219 C 182.160156 143.042969 181.503906 142.273438 180.6875 141.636719 C 177.046875 138.773438 172.417969 140.632812 169.652344 143.820312 C 168.203125 143.59375 166.816406 143.792969 165.492188 144.417969 C 165.539062 146.359375 165.039062 149.234375 162.128906 150.652344 C 166.839844 144.679688 162.96875 140.0625 162.285156 135.277344 C 162.113281 134.078125 162.09375 132.601562 162.863281 131.589844 C 162.222656 131.097656 161.882812 130.445312 161.851562 129.636719 C 163.636719 131.855469 166.339844 131.613281 167.519531 130.332031 C 168.148438 130.578125 169.289062 130.90625 169.941406 130.664062 C 170.160156 130.578125 170.335938 130.441406 170.476562 130.253906 C 170.6875 130.015625 170.757812 129.738281 170.683594 129.425781 C 170.59375 129.121094 170.257812 128.925781 169.839844 128.726562 C 169.886719 128.316406 169.875 127.914062 169.808594 127.507812 C 169.746094 127.089844 169.519531 126.796875 169.136719 126.621094 C 168.199219 126.1875 167.339844 125.636719 166.554688 124.96875 C 166.414062 124.84375 166.25 124.777344 166.058594 124.769531 C 165.871094 124.765625 165.703125 124.816406 165.550781 124.929688 C 163.949219 126.089844 162.261719 127.113281 160.488281 127.996094 C 160.242188 128.117188 160.042969 128.296875 159.890625 128.527344 C 157.398438 132.1875 155.75 137.886719 155.089844 143.753906 C 154.851562 145.875 155.25 152.261719 156.535156 153.945312 C 156.683594 154.144531 156.863281 154.308594 157.070312 154.441406 C 158.089844 155.070312 159.644531 155.3125 160.738281 155.542969 C 164.761719 157.722656 168.097656 157.46875 172.019531 155.398438 C 174.816406 153.921875 177.546875 152.144531 180.773438 154.511719 C 178.957031 153.9375 177.890625 153.996094 176.570312 154.695312 C 177.15625 155.015625 177.632812 155.449219 178.003906 156 C 178.929688 157.273438 179.445312 158.203125 180.179688 159.109375 C 181.519531 160.761719 183.464844 162.027344 185.335938 163 C 186.726562 163.707031 188.15625 164.332031 189.625 164.867188 C 184.910156 164.0625 181.289062 162.464844 179.03125 159.804688 C 178.699219 160.507812 178.632812 161.234375 178.832031 161.984375 C 178.898438 162.210938 178.867188 162.421875 178.742188 162.621094 C 178.09375 163.671875 177.371094 165.464844 178.113281 167.210938 C 178.238281 167.496094 178.207031 167.761719 178.015625 168.007812 C 176.9375 169.457031 175.808594 171.65625 175.769531 173.714844 C 170.324219 172.898438 164.886719 172.3125 159.519531 171.984375 C 159.46875 171.980469 159.441406 172.003906 159.4375 172.054688 C 159.429688 172.105469 159.449219 172.136719 159.5 172.144531 L 209.574219 182.136719 C 209.621094 182.148438 209.652344 182.128906 209.667969 182.078125 C 209.679688 182.03125 209.664062 182 209.617188 181.980469 Z M 180.394531 174.46875 C 180.089844 174.414062 179.785156 174.363281 179.476562 174.308594 C 180.367188 173.058594 181.429688 171.984375 182.675781 171.085938 C 181.839844 172.164062 181.082031 173.292969 180.394531 174.46875 Z M 194.601562 143.632812 C 200.078125 147.921875 199.644531 155.089844 197.316406 161.015625 C 197.949219 163.59375 197.371094 165.902344 196.042969 168.660156 C 196.757812 165.824219 196.683594 163.496094 195.953125 161.449219 C 198.042969 155.785156 198.683594 149.214844 194.601562 143.632812 Z M 194.601562 143.632812 " fill-opacity="1" fill-rule="nonzero"/></g></g></g></svg>